<svg width="946" height="946" viewBox="0 0 946 946" fill="none" xmlns="http://www.w3.org/2000/svg">
<g clip-path="url(#clip0_396_900)">
<path d="M60.6079 594.755C77.3981 572.814 94.1498 550.843 110.986 528.937C159.887 465.31 208.818 401.705 257.746 338.098C323.417 252.724 389.097 167.356 454.774 81.9864C460.14 75.0117 465.521 68.0479 471.253 60.6135C476.868 67.8782 482.228 74.7834 487.558 81.7114C554.357 168.539 621.16 255.364 687.947 342.201C745.699 417.292 803.432 492.396 861.173 567.496C868.073 576.471 874.966 585.452 881.849 595.216C881.932 605.7 882.029 615.399 882.126 625.098C882.126 625.098 882.073 624.98 881.636 625.073C877.12 625.127 873.04 625.089 868.841 625.061C868.723 625.07 868.485 625.057 868.358 624.599C868.201 621.995 868.232 619.846 868.132 617.703C867.875 612.198 867.56 606.697 866.788 601.12C602.654 601.047 339 601.047 74.9956 601.047C74.9956 609.304 74.9956 617.093 74.5383 624.947C70.1367 625.062 66.1923 625.11 61.9727 625.146C61.5138 625.123 61.3303 625.114 61.0448 624.635C60.8312 614.362 60.7195 604.558 60.6079 594.755ZM277.959 335.815C276.724 337.505 275.488 339.196 273.692 341.315C265.109 352.444 256.483 363.541 247.957 374.715C241.552 383.109 235.275 391.603 228.432 400.435C226.953 402.419 225.474 404.404 223.392 406.799C220.834 410.076 218.244 413.329 215.723 416.634C203.424 432.75 191.143 448.88 178.271 465.238C177.741 466.132 177.211 467.027 176.137 468.261C175.192 469.689 174.247 471.118 172.727 472.846C145.374 508.329 118.02 543.811 90.671 579.297C89.0933 581.344 87.5511 583.418 85.683 585.888C343.096 585.888 599.698 585.888 856.945 585.888C841.363 565.643 826.271 545.975 811.115 526.357C797.164 508.3 783.145 490.297 768.992 471.694C767.256 469.5 765.52 467.306 763.479 464.421C748.615 445.186 733.752 425.952 718.743 406.106C717.18 404.314 715.617 402.523 713.967 400.186C713.396 399.51 712.825 398.834 712.017 397.518C711.713 397.187 711.409 396.855 711.108 396.223C711.034 396.012 710.887 395.891 710.357 395.211C696.42 377.201 682.484 359.192 668.32 340.614C666.527 338.414 664.734 336.214 662.749 333.37C651.309 318.582 639.869 303.794 628.103 288.368C625.826 285.457 623.549 282.547 620.866 278.958C619.834 277.774 618.801 276.591 617.66 275.122C617.529 274.944 617.355 274.835 617.164 274.122C615.589 272.369 614.014 270.616 612.466 268.692C612.466 268.692 612.52 268.528 612.127 267.868C600.46 252.765 588.793 237.663 576.927 221.949C574.727 219.38 572.528 216.812 570.31 213.608C569.276 212.28 568.242 210.952 566.974 209.024C565.332 206.974 563.69 204.924 561.762 202.273C546.195 181.994 530.661 161.69 515.052 141.445C501.789 124.242 488.438 107.106 474.856 89.2556C473.324 86.9762 471.655 85.3145 468.95 87.9738C468.95 87.9738 468.952 88.0518 468.556 88.1685C468.311 88.3512 468.213 88.5932 467.938 89.0409C467.758 89.1873 467.59 89.3462 467.013 90.139C449.278 113.165 431.515 136.17 413.818 159.225C402.697 173.712 391.674 188.274 380.076 203.163C378.653 205.111 377.231 207.059 375.406 209.116C375.148 209.294 375.043 209.538 374.527 210.261C373.458 211.776 372.389 213.291 370.886 215.066C370.531 215.646 370.177 216.227 369.222 217.087C367.669 219.157 366.116 221.228 364.084 224.027C352.748 238.783 341.413 253.539 329.978 268.838C329.936 269.205 329.894 269.571 329.132 269.901C327.957 271.586 326.782 273.271 324.982 275.046C323.627 276.86 322.272 278.675 320.332 280.896C318.572 283.272 316.813 285.648 314.582 288.225C314.301 288.646 314.019 289.068 313.227 289.96C302.05 304.608 290.873 319.256 279.514 334.2C279.514 334.2 279.547 334.545 279.073 334.699C278.893 334.971 278.712 335.243 277.959 335.815Z" fill="#0E3490"/>
<path d="M868.485 625.057C868.485 625.057 868.723 625.07 869.166 625.313C873.804 625.654 877.998 625.751 882.193 625.849C882.204 642.508 882.221 659.167 882.225 675.826C882.232 701.657 882.229 727.489 882.23 753.32C882.23 754.958 882.23 756.596 882.23 758.547C608.108 758.547 334.399 758.547 60.1479 758.547C60.1479 714.251 60.1479 670.143 60.4245 625.598C60.701 625.16 61.1469 625.105 61.1469 625.105C61.3305 625.114 61.514 625.124 62.2745 625.373C68.6045 625.557 74.3576 625.501 80.5709 625.42C340.807 625.391 600.584 625.389 860.36 625.379C862.69 625.379 865.02 625.269 867.645 625.256C868.122 625.22 868.303 625.139 868.485 625.057ZM74.962 700.367C74.9756 713.031 75.2146 725.701 74.8866 738.357C74.7634 743.109 76.3439 744.097 80.8074 744.096C340.095 743.992 599.382 743.999 858.669 743.995C860.002 743.995 861.348 743.878 862.666 744.018C865.783 744.349 867.08 743.328 867.116 739.906C867.256 726.279 867.69 712.654 868.057 698.097C868.025 693.759 867.993 689.421 867.985 684.194C867.67 671.734 867.308 659.275 867.061 646.814C866.934 640.399 866.705 640.031 860.259 640.031C602.149 640.023 344.038 640.019 85.9277 640.08C82.3762 640.081 78.825 640.913 74.9723 641.396C74.9723 656.238 74.9723 670.549 74.4881 685.546C74.6442 690.195 74.8003 694.843 74.962 700.367Z" fill="#213237"/>
<path d="M585.13 806.763C603.851 810.706 615.451 824.302 615.974 842.548C616.592 864.091 607.055 878.185 588.138 883.188C583.846 884.322 579.318 884.969 574.882 885.07C563.556 885.33 552.22 885.155 540.889 885.154C539.324 885.153 537.76 885.154 536.195 885.154C536.134 884.645 536.073 884.136 536.012 883.627C537.599 883.402 539.19 883.205 540.771 882.948C544.538 882.339 546.925 880.229 546.937 876.317C547.001 855.82 546.973 835.323 546.932 814.826C546.923 810.579 544.378 808.556 540.423 807.989C538.935 807.776 537.436 807.639 535.996 806.478C552.271 805.604 568.492 804.776 585.13 806.763ZM586.682 816.836C581.234 810.41 574.066 809.883 566.238 810.361C566.238 832.408 566.239 853.878 566.237 875.349C566.237 878.804 568.096 880.686 571.399 880.859C578.667 881.239 584.978 879.221 588.905 872.594C595.148 862.057 595.522 850.436 594.544 838.706C593.904 831.036 592.323 823.556 586.682 816.836Z" fill="#0E3390"/>
<path d="M504.931 849.027C509.822 856.147 514.672 863.295 519.615 870.379C523.345 875.724 526.295 881.867 533.768 883.56C533.555 883.925 533.343 884.289 533.13 884.653C520.334 884.653 507.539 884.653 493.716 884.653C503.28 879.784 503.305 879.768 497.433 870.886C493.683 865.215 489.846 859.601 485.708 853.458C480.497 859.947 475.457 865.865 470.826 872.088C466.234 878.258 468.05 881.951 475.83 883.081C476.756 883.216 477.665 883.455 478.54 884.56C468.438 884.56 458.336 884.56 448.188 884.56C448.245 884.073 448.225 883.503 448.327 883.48C456.872 881.566 462.177 875.429 467.327 869.043C472.543 862.575 477.838 856.172 483.089 849.752C475.153 838.067 467.549 826.535 459.543 815.288C457.169 811.954 453.667 809.423 450.694 806.536C452.492 804.953 485.221 804.574 489.302 806.752C488.967 807.115 488.704 807.677 488.336 807.756C479.98 809.556 479.683 810.54 484.323 817.859C487.476 822.831 490.196 828.077 493.194 833.913C496.666 835.33 497.431 838.61 499.327 840.779C499.327 840.779 499.122 840.917 499.129 841.213C499.865 842.243 500.595 842.976 501.325 843.709C501.325 843.709 501.12 844.029 501.146 844.224C502.425 845.954 503.678 847.49 504.931 849.027Z" fill="#133590"/>
<path d="M326.492 814.475C320.637 809.382 314.383 806.706 306.941 809.019C298.318 811.701 296.128 820.619 302.97 826.458C306.953 829.857 311.897 832.145 316.464 834.84C321.327 837.709 326.494 840.125 331.105 843.346C340.461 849.883 343.842 858.657 341.343 868.333C338.842 878.017 329.922 885.937 319.469 886.8C314.589 887.203 309.412 886.837 304.679 885.616C294.623 883.021 294.706 882.698 286.502 887.205C286.502 877.046 286.502 867.126 286.502 857.206C286.849 857.071 287.195 856.937 287.542 856.802C288.157 858.206 288.905 859.568 289.365 861.022C292.604 871.245 298.168 879.437 309.157 882.204C312.391 883.018 316.193 883.002 319.417 882.157C329.067 879.629 331.806 868.925 324.255 862.456C319.783 858.625 314.085 856.252 309.052 853.045C303.608 849.577 297.759 846.488 293.055 842.177C286.217 835.911 284.45 827.666 287.796 818.853C291.185 809.931 298.12 804.836 307.409 804.232C312.692 803.888 318.344 805.018 323.422 806.71C331.277 809.328 331.128 809.773 336.404 803.264C336.404 812.68 336.404 821.29 336.404 830.545C333 824.969 329.876 819.851 326.492 814.475Z" fill="#133590"/>
<path d="M775.827 885.574C789.01 881.911 799.832 875.744 805.265 862.687C806.379 860.009 807.117 857.175 808.165 853.997C805.183 854.79 802.885 855.634 800.513 855.994C787.257 858.009 777.037 849.605 775.933 836.235C774.956 824.399 778.038 814.384 788.322 807.632C800.908 799.369 817.479 805.289 824.296 820.246C832.613 838.498 825.141 864.353 808.151 876.482C799.363 882.756 789.502 885.84 778.878 886.754C777.82 886.845 776.697 886.183 775.827 885.574ZM809.756 833.804C808.586 827.296 807.687 820.723 806.137 814.306C805.307 810.866 803.173 807.635 798.855 808.11C794.499 808.589 793.23 812.316 793.148 815.792C792.972 823.234 793.197 830.712 793.782 838.133C794.007 840.98 795.371 843.867 796.739 846.46C798.525 849.847 801.754 850.398 805.357 849.862C809.101 849.304 809.449 846.571 809.585 843.691C809.726 840.706 809.723 837.714 809.756 833.804Z" fill="#133590"/>
<path d="M126.068 826.013C126.062 822.683 126.094 819.849 126.044 817.017C125.925 810.206 124.364 808.529 117.689 807.861C116.794 807.772 115.918 807.501 115.146 806.149C129.15 806.149 143.155 806.149 157.16 806.149C157.205 806.557 157.251 806.965 157.296 807.373C155.868 807.555 154.443 807.856 153.01 807.897C148.192 808.034 145.423 810.439 145.405 815.257C145.332 834.751 145.289 854.247 145.493 873.74C145.552 879.317 147.361 880.653 152.91 880.807C154.242 880.843 155.576 880.81 156.909 880.81C174.463 880.811 179.355 877.334 185.121 860.826C185.578 859.516 186.256 858.284 186.832 857.015C187.414 857.118 187.995 857.22 188.577 857.322C187.657 866.419 186.737 875.516 185.811 884.666C162.055 884.666 138.644 884.666 114.901 884.666C115.38 883.881 115.497 883.435 115.702 883.39C126.026 881.132 126.048 881.136 126.063 870.506C126.083 855.841 126.068 841.175 126.068 826.013Z" fill="#113491"/>
<path d="M725.055 841.012C733.264 829.869 741.503 819.181 749.172 808.099C751.964 804.064 754.943 803.209 759.512 804.485C759.512 821.098 759.512 837.726 759.512 854.79C762.023 854.997 764.243 855.18 766.704 855.383C766.704 859.411 766.704 863.177 766.704 867.299C764.57 867.473 762.464 867.644 759.808 867.861C759.808 873.451 759.808 879.023 759.808 884.891C754.021 884.891 748.789 884.891 743.204 884.891C743.204 879.167 743.204 873.714 743.204 867.743C733.624 867.743 724.378 867.743 714.838 867.743C714.143 861.14 713.289 855.215 718.28 850.099C720.814 847.502 722.687 844.261 725.055 841.012ZM738.722 830.235C732.788 838.316 726.854 846.398 720.74 854.725C728.714 854.725 735.911 854.725 742.959 854.725C742.959 844.759 742.959 835.226 742.959 824.75C741.309 826.877 740.23 828.269 738.722 830.235Z" fill="#173993"/>
<path d="M658.85 849.614C658.85 849.614 658.89 849.254 659.391 849.144C660.635 849.76 661.378 850.486 662.087 851.612C661.716 852.881 661.379 853.749 660.971 854.801C668.452 854.801 675.634 854.801 683.061 854.801C683.061 845.47 683.089 836.495 682.983 827.521C682.977 827.039 681.842 826.571 680.934 825.982C679.958 824.785 679.279 823.703 678.6 822.621C678.6 822.621 678.89 822.987 679.054 822.786C679.465 822.03 679.712 821.474 679.958 820.917C683.543 815.927 686.802 810.644 690.877 806.093C692.477 804.306 695.906 804.157 699.299 802.988C699.299 821.069 699.299 837.817 699.299 854.802C701.839 855.017 703.94 855.195 706.376 855.401C706.376 859.258 706.376 863.003 706.376 867.161C704.289 867.393 702.203 867.625 699.535 867.922C699.535 873.498 699.535 879.066 699.535 884.892C693.857 884.892 688.766 884.892 683.132 884.892C683.132 879.226 683.132 873.649 683.132 867.613C673.353 867.613 664.101 867.613 654.457 867.613C654.284 861.653 652.572 855.997 657.808 850.992C658.535 850.327 658.693 849.971 658.85 849.614Z" fill="#103390"/>
<path d="M224.945 829.865C228.698 821.232 232.45 812.599 236.784 802.626C239.878 809.562 242.422 815.223 244.932 820.898C252.597 838.227 260.206 855.58 267.932 872.881C270.109 877.754 272.362 882.724 279.054 883.328C278.874 883.726 278.695 884.123 278.515 884.52C265.773 884.52 253.031 884.52 239.197 884.52C243.181 881.811 250.646 884.691 249.017 876.097C248.637 874.574 248.238 873.821 247.839 873.067C247.839 873.067 247.94 873.051 247.955 872.678C245.609 867.471 243.249 862.637 240.764 857.485C236.959 848.765 233.278 840.363 229.317 831.322C228.011 833.674 227.075 835.36 225.755 836.977C224.821 835.523 224.273 834.139 223.725 832.755C223.725 832.755 223.801 832.885 224.071 832.727C224.542 831.668 224.744 830.766 224.945 829.865Z" fill="#103390"/>
<path d="M383.344 851.398C393.749 851.396 403.687 851.396 413.908 851.396C413.908 855.627 413.908 859.533 413.908 863.661C402.708 863.661 391.661 863.661 380 863.661C380 860.23 379.803 856.95 380.132 853.723C380.219 852.865 381.918 852.17 383.344 851.398Z" fill="#173993"/>
<path d="M499.231 840.403C497.432 838.611 496.667 835.33 493.149 834.303C494.455 833.576 496.429 833.635 497.236 832.694C501.012 828.294 504.701 823.778 507.977 819C512.227 812.802 510.68 809.506 503.275 807.918C502.712 807.797 502.203 807.429 501.52 807.106C504.626 804.782 527.361 804.612 530.942 806.697C515.498 811.622 509.898 826.72 499.652 837.007C499.063 837.598 499.289 839.001 499.231 840.403Z" fill="#273F92"/>
<path d="M240.889 857.804C243.249 862.638 245.609 867.471 247.925 872.719C245.515 862.938 238.455 861.226 229.369 862.549C224.541 863.253 219.607 863.227 214.39 863.45C215.078 861.5 216.097 859.63 217.567 857.861C225.643 857.909 233.266 857.856 240.889 857.804Z" fill="#273F92"/>
<path d="M678.325 822.802C679.279 823.703 679.958 824.785 680.846 826.318C678.626 830.088 676.275 833.469 673.746 836.711C669.936 841.595 666.002 846.383 662.121 851.212C661.378 850.486 660.634 849.76 659.531 849.029C665.464 840.344 671.757 831.664 678.325 822.802Z" fill="#273F92"/>
<path d="M200.05 884.985C199.87 885.018 199.69 885.051 199.101 884.797C198.469 883.688 198.244 882.867 198.019 882.046C198.019 882.046 198.018 881.993 198.392 882.012C199.493 881.323 200.221 880.616 200.949 879.909C201.046 879.728 201.143 879.548 201.728 879.138C202.403 878.516 202.591 878.123 202.78 877.731C202.78 877.731 202.833 877.844 203.075 877.743C203.528 877.075 203.739 876.509 203.951 875.942C203.951 875.942 204.003 875.993 204.341 875.927C204.984 874.805 205.288 873.749 205.593 872.692C205.593 872.692 205.69 873.04 205.971 872.806C206.355 871.942 206.458 871.312 206.561 870.682C206.561 870.682 206.871 870.969 207.056 870.786C209.008 869.032 210.152 868.923 209.875 871.792C209.641 874.216 208.943 876.672 209.203 879.03C209.318 880.07 211.295 880.906 212.427 881.834C212.427 881.834 212.769 881.832 212.951 882.121C213.417 882.377 213.7 882.345 213.984 882.313C214.529 882.418 215.075 882.523 216.072 882.844C216.524 883.06 216.84 883.062 216.84 883.062C216.84 883.062 216.904 883.012 216.63 883.332C210.921 884.097 205.486 884.541 200.05 884.985ZM206.056 879.689C206.086 880.012 206.116 880.335 206.146 880.657C206.254 880.309 206.363 879.961 206.056 879.689Z" fill="#113491"/>
<path d="M223.453 832.968C224.273 834.139 224.821 835.523 225.723 837.348C223.726 842.87 221.375 847.952 219.003 852.651C219.268 850.444 219.555 848.621 219.867 846.635C218.734 846.797 217.948 846.91 217.161 847.023C219.167 842.408 221.174 837.794 223.453 832.968Z" fill="#273F92"/>
<path d="M216.983 847.276C217.948 846.91 218.735 846.798 219.867 846.636C219.555 848.621 219.269 850.445 218.992 852.638C219.002 853.009 219.033 853.013 218.774 853.188C218.377 853.948 218.239 854.535 218.073 855.084C218.045 855.046 218.139 855.056 217.853 855.221C217.415 856.006 217.262 856.627 217.132 857.375C217.155 857.503 217.115 857.76 217.115 857.76C216.097 859.63 215.078 861.5 214.056 863.729C214.051 864.089 214.039 864.569 213.599 864.83C212.288 865.845 211.415 866.599 210.23 867.623C210.726 864.606 211.13 862.147 211.534 859.689C211.534 859.689 211.856 859.616 212.048 859.582C212.459 858.66 212.679 857.773 212.899 856.886C212.899 856.886 212.966 856.97 213.26 856.819C214.286 854.581 215.017 852.493 215.748 850.406C216.1 849.447 216.453 848.488 216.983 847.276Z" fill="#113491"/>
<path d="M211.304 859.935C211.13 862.147 210.726 864.606 210.23 867.623C211.415 866.599 212.288 865.845 213.47 865.031C212.736 867.761 211.161 870.485 210.811 873.358C210.504 875.882 211.569 878.573 212.227 881.512C211.295 880.906 209.318 880.07 209.203 879.03C208.943 876.671 209.641 874.216 209.875 871.792C210.152 868.923 209.008 869.032 206.897 870.642C208.06 867.18 209.567 863.68 211.304 859.935Z" fill="#273F92"/>
<path d="M200.433 885.097C205.486 884.541 210.921 884.097 216.652 883.367C218.071 883.222 219.194 883.363 220.316 883.504C220.296 884.072 220.275 884.641 220.255 885.209C213.775 885.209 207.295 885.209 200.433 885.097Z" fill="#273F92"/>
<path d="M61.0448 624.635C61.1468 625.105 60.7009 625.16 60.4771 625.14C60.2002 615.227 60.1471 605.334 60.351 595.098C60.7196 604.558 60.8312 614.362 61.0448 624.635Z" fill="#7D7A83"/>
<path d="M882.256 624.709C882.029 615.399 881.932 605.7 881.933 595.554C882.148 604.845 882.267 614.583 882.256 624.709Z" fill="#7D7A83"/>
<path d="M197.659 882.055C198.244 882.867 198.469 883.688 198.835 884.729C197.298 884.949 195.62 884.949 193.942 884.949C193.852 884.505 193.762 884.061 193.672 883.617C194.881 883.099 196.09 882.581 197.659 882.055Z" fill="#273F92"/>
<path d="M882.291 625.653C877.998 625.751 873.804 625.654 869.285 625.304C873.04 625.09 877.12 625.128 881.672 625.129C882.145 625.092 882.389 625.456 882.291 625.653Z" fill="#7D7A83"/>
<path d="M215.478 850.651C215.017 852.493 214.286 854.581 213.209 856.802C213.645 854.922 214.426 852.909 215.478 850.651Z" fill="#273F92"/>
<path d="M504.863 848.701C503.678 847.49 502.425 845.954 501.238 844.058C502.468 845.257 503.631 846.817 504.863 848.701Z" fill="#273F92"/>
<path d="M205.354 872.895C205.288 873.748 204.984 874.805 204.31 875.91C204.332 875.005 204.723 874.051 205.354 872.895Z" fill="#273F92"/>
<path d="M501.251 843.41C500.595 842.976 499.865 842.243 499.213 841.123C499.919 841.527 500.549 842.319 501.251 843.41Z" fill="#273F92"/>
<path d="M200.652 879.979C200.221 880.616 199.493 881.323 198.41 882.031C198.821 881.371 199.588 880.711 200.652 879.979Z" fill="#273F92"/>
<path d="M212.631 857.064C212.679 857.773 212.459 858.66 211.884 859.603C211.806 858.853 212.085 858.048 212.631 857.064Z" fill="#273F92"/>
<path d="M247.839 873.397C248.238 873.821 248.637 874.574 249.014 875.675C248.608 875.258 248.223 874.492 247.839 873.397Z" fill="#273F92"/>
<path d="M224.7 830.088C224.744 830.766 224.542 831.668 224.004 832.693C223.93 831.982 224.192 831.147 224.7 830.088Z" fill="#273F92"/>
<path d="M679.696 821.037C679.712 821.473 679.465 822.03 678.897 822.614C678.861 822.147 679.147 821.652 679.696 821.037Z" fill="#273F92"/>
<path d="M202.565 877.804C202.591 878.124 202.403 878.516 201.989 878.976C201.959 878.654 202.154 878.265 202.565 877.804Z" fill="#273F92"/>
<path d="M203.685 876.079C203.739 876.508 203.528 877.075 203.013 877.736C202.946 877.292 203.183 876.754 203.685 876.079Z" fill="#273F92"/>
<path d="M206.334 870.866C206.458 871.312 206.355 871.942 205.908 872.637C205.745 872.151 205.926 871.6 206.334 870.866Z" fill="#273F92"/>
<path d="M658.586 849.748C658.693 849.97 658.535 850.326 658.105 850.811C657.996 850.586 658.159 850.234 658.586 849.748Z" fill="#273F92"/>
<path d="M213.753 882.186C213.7 882.345 213.417 882.377 213.066 882.248C213.174 882.077 213.348 882.069 213.753 882.186Z" fill="#273F92"/>
<path d="M216.784 882.962C216.84 883.062 216.524 883.06 216.453 883.022C216.383 882.985 216.728 882.862 216.784 882.962Z" fill="#273F92"/>
<path d="M769.156 472.27C783.145 490.297 797.164 508.3 811.115 526.357C826.271 545.975 841.363 565.643 856.945 585.888C599.698 585.888 343.096 585.888 85.6831 585.888C87.5511 583.418 89.0934 581.344 90.671 579.297C118.021 543.811 145.374 508.329 173.544 472.753C225.009 472.629 275.657 472.581 326.305 472.57C377.299 472.559 428.292 472.593 479.286 472.59C571.443 472.583 663.601 472.567 755.759 472.537C760.224 472.535 764.69 472.363 769.156 472.27ZM310.296 559.192C305.343 559.484 300.368 560.145 295.448 559.859C293.831 559.766 291.1 557.288 291.023 555.79C290.592 547.367 290.815 538.91 290.815 530.279C302.46 529.257 303.623 538.652 307.202 546.055C307.202 533.771 307.202 521.488 307.202 509.204C304.979 513.052 304.032 517.248 302.038 520.866C299.678 525.149 295.461 526.388 290.552 525.623C290.552 515.97 290.552 506.71 290.552 496.226C297.421 497.006 304.034 497.215 310.384 498.62C317.991 500.302 319.232 507.832 322.67 513.578C322.67 506.776 322.67 499.974 322.67 493.268C302.726 493.268 283.112 493.268 263.499 493.268C263.903 494.254 264.411 494.613 264.966 494.71C272.68 496.065 273.052 496.485 273.055 504.333C273.059 518.818 273.051 533.304 273.049 547.789C273.048 559.356 273.049 559.356 262.501 563.784C283.931 563.784 304.379 563.784 325.178 563.784C326.188 556.364 327.178 549.081 328.169 541.798C327.654 541.671 327.138 541.544 326.622 541.417C323.707 549.336 319.807 556.356 310.296 559.192ZM443.127 524.05C443.059 525.381 442.97 526.711 442.927 528.042C442.416 543.596 450.073 556.518 463.243 562.339C478.383 569.032 496.539 566.63 507.078 556.216C508.669 554.644 509.104 551.9 510.075 549.699C509.634 549.542 509.194 549.385 508.753 549.228C505.834 551.686 503.125 554.463 499.96 556.546C486.38 565.485 470.316 561.144 465.079 547.093C461.888 538.531 460.743 529.432 462.467 520.556C463.634 514.55 465.856 508.038 469.622 503.383C480.258 490.237 500.273 494.721 507.133 511.188C507.807 512.804 508.585 514.376 509.314 515.969C509.71 515.827 510.106 515.685 510.502 515.543C510.502 507.44 510.502 499.337 510.502 490.921C503.916 496.327 503.916 496.326 497.439 494.071C472.097 485.246 449.917 497.177 443.127 524.05ZM233.028 496.042C244.398 497.856 249.952 506.064 253.565 516.405C253.899 516.096 254.232 515.786 254.565 515.476C254.565 507.381 254.565 499.286 254.565 490.714C249.099 496.586 249.099 496.585 240.925 493.851C239.506 493.376 238.094 492.871 236.656 492.461C213.054 485.731 188.077 503.219 187.103 527.363C186.486 542.661 192.285 555.059 206.457 561.648C221.252 568.527 236.105 568.335 249.724 557.828C252.682 555.547 255.239 553.232 253.217 548.766C250.732 551.037 248.541 553.313 246.08 555.244C231.943 566.336 213.395 561.325 208.654 544.995C206.085 536.144 205.145 527.066 206.989 517.867C209.951 503.086 218.313 495.797 233.028 496.042ZM387.689 492.737C381.126 492.492 374.375 491.143 368.038 492.222C352.651 494.842 340.059 508.729 337.984 523.824C335.779 539.866 342.654 554.256 355.906 561.335C370.204 568.973 389.53 567.183 400.951 557.235C403.44 555.067 405.267 552.84 403.49 549.18C400.742 551.55 398.269 554.005 395.483 556.029C383.35 564.843 366.816 562.216 361.099 549.782C355.12 536.778 354.483 522.931 360.18 509.565C363.91 500.814 370.897 495.653 380.924 495.978C390.773 496.298 397.352 501.507 401.401 510.239C402.256 512.083 403.026 513.967 403.836 515.833C404.141 515.741 404.447 515.648 404.753 515.556C404.753 507.452 404.753 499.348 404.753 491.244C402.146 497.116 398.154 496.594 393.653 494.723C391.972 494.024 390.212 493.514 387.689 492.737ZM594.099 516.498C592.544 517.645 590.989 518.791 589.193 520.116C588.815 518.175 588.52 516.654 588.294 515.492C581.383 515.492 574.888 515.492 568.393 515.492C573.909 517.789 573.972 522.157 573.878 526.857C573.708 535.35 573.809 543.849 573.841 552.345C573.859 556.83 574.175 561.41 568.722 563.665C576.881 563.665 585.04 563.665 592.112 563.665C590.971 560.935 589.054 558.353 588.93 555.688C588.518 546.877 588.672 538.035 588.778 529.207C588.827 525.041 592.835 520.812 596.57 520.881C601.745 520.976 601.497 525.257 601.642 528.52C601.959 535.67 601.773 542.843 601.749 550.006C601.733 554.995 602.588 560.288 596.124 563.609C605.42 563.609 613.459 563.609 621.497 563.609C617.026 562.026 616.676 558.557 616.621 554.929C616.483 545.939 616.71 536.927 616.144 527.964C615.312 514.773 606.772 510.191 594.099 516.498ZM704.776 537.872C705.298 537.566 706.206 537.335 706.283 536.94C707.577 530.343 702.431 519.713 696.189 515.896C689.936 512.071 681.726 512.807 675.172 517.78C665.186 525.358 662.082 542.993 668.588 555.184C674.262 565.815 687.103 569.26 697.21 562.709C701.688 559.806 704.601 555.671 705.645 550.113C700.545 555.313 695.676 560.798 687.702 555.961C682.478 552.792 679.279 544.505 680.563 537.864C688.296 537.864 696.105 537.864 704.776 537.872ZM550.483 537.861C554.251 537.861 558.019 537.861 561.739 537.861C562.397 526.55 556.557 516.741 548.055 514.184C539.472 511.602 529.214 516.103 524.595 525.002C519.643 534.543 519.42 544.508 523.821 554.315C527.545 562.612 535.015 566.67 544.015 565.88C552.459 565.139 560.812 557.596 561.3 549.461C556.267 554.647 551.68 560.909 543.938 556.281C537.345 552.341 535.806 545.519 535.171 537.861C540.239 537.861 544.866 537.861 550.483 537.861ZM633.253 538.496C633.452 544.144 633.251 549.844 633.957 555.428C634.747 561.672 640.761 565.518 647.677 564.954C653.743 564.459 658.824 559.716 658.459 553.761C657.387 554.433 657.007 555.891 656.065 556.588C654.714 557.588 652.69 558.875 651.437 558.484C650.136 558.078 648.596 555.84 648.565 554.373C648.329 543.132 648.435 531.883 648.435 520.127C652.43 520.127 656.006 520.127 659.727 520.127C659.727 518.212 659.727 516.816 659.727 514.784C655.763 514.784 652.057 514.784 647.809 514.784C647.809 508.485 647.809 502.817 647.809 497.051C640.709 504.816 633.948 512.21 626.937 519.876C629.116 520.081 630.883 520.247 633.253 520.47C633.253 526.281 633.253 531.89 633.253 538.496ZM747.882 513.688C742.951 516.939 738.021 520.19 733.049 523.468C733.049 521.348 733.049 518.329 733.049 515.575C726.041 515.575 719.646 515.575 713.251 515.575C717.621 517.373 718.552 520.592 718.542 524.591C718.52 533.416 718.674 542.242 718.722 551.067C718.748 555.953 719.238 561.063 711.923 563.582C722.012 563.582 730.509 563.582 738.864 563.582C737.015 561.847 734.26 560.518 734.028 558.839C732.609 548.585 732.101 538.213 735.937 528.314C737.81 523.48 740.246 523.398 744.841 525.862C746.992 527.016 750.73 527.684 752.414 526.564C754.223 525.361 755.157 521.824 755.233 519.268C755.352 515.263 752.463 513.537 747.882 513.688Z" fill="#9BD6F4"/>
<path d="M867.349 625.21C865.02 625.269 862.69 625.379 860.36 625.379C600.583 625.389 340.807 625.391 80.1707 625.258C77.8721 625.043 76.4338 624.962 74.9956 624.882C74.9956 617.093 74.9956 609.305 74.9956 601.047C339.001 601.047 602.654 601.047 866.799 601.567C867.31 609.795 867.33 617.503 867.349 625.21Z" fill="#F9FDFE"/>
<path d="M567.207 209.625C568.242 210.953 569.276 212.281 570.192 214.427C570.073 218.17 570.072 221.093 570.036 224.483C570.09 239.329 570.18 253.708 570.012 268.177C569.505 268.526 569.255 268.786 568.551 268.917C504.208 268.766 440.321 268.741 376.434 268.732C375.612 268.732 374.791 268.927 373.735 268.828C372.744 268.277 371.987 267.929 371.284 267.375C371.37 266.886 371.339 266.609 371.45 265.957C371.744 254.779 371.917 243.981 371.888 233.185C371.871 227.058 371.521 220.932 371.321 214.806C372.389 213.291 373.458 211.776 375.263 210.129C432.33 210.019 488.661 210.046 544.991 210.055C550.32 210.056 555.65 209.944 561.421 209.947C563.644 209.881 565.426 209.753 567.207 209.625Z" fill="#F29E77"/>
<path d="M320.917 280.489C322.272 278.675 323.627 276.86 325.726 275.116C328.428 275.411 330.387 275.829 332.346 275.832C375.432 275.907 418.519 275.936 461.606 275.974C463.347 275.976 465.088 275.974 466.641 275.974C467.173 278.181 467.517 279.612 467.794 281.504C467.763 297.224 467.799 312.482 467.686 327.951C467.657 328.783 467.778 329.403 467.832 330.348C467.829 331.11 467.893 331.547 467.768 332.195C467.41 332.947 467.242 333.487 466.601 334.053C418.084 334.093 370.041 334.107 321.637 334.041C320.543 333.924 319.808 333.886 319.318 333.537C320.112 332.172 321.138 331.118 321.138 330.063C321.142 313.538 321.015 297.014 320.917 280.489Z" fill="#F29F78"/>
<path d="M617.769 275.407C618.801 276.591 619.834 277.774 621.006 279.638C621.17 283.238 621.194 286.157 621.146 289.534C621.138 303.979 621.203 317.966 621.187 332.282C621.063 333.059 621.017 333.508 620.575 334.017C619.111 334.13 618.043 334.181 616.515 334.151C571.791 334.054 527.528 334.037 483.265 334.037C482.109 334.037 480.953 334.218 479.375 334.232C475.602 334.605 474.867 333.047 474.896 329.868C475.051 313.169 474.937 296.468 475.001 279.768C475.006 278.385 475.639 277.004 476.443 275.706C510.219 275.838 543.532 275.941 576.845 275.906C590.487 275.893 604.128 275.583 617.769 275.407Z" fill="#F2A079"/>
<path d="M228.942 400.053C235.275 391.603 241.552 383.11 247.957 374.715C256.483 363.541 265.109 352.445 274.278 341.153C275.281 340.988 275.697 340.984 276.566 341.047C306.305 341.162 335.591 341.229 364.878 341.215C366.431 341.214 367.983 340.534 369.671 340.352C370.167 341.002 370.527 341.471 370.871 342.415C370.879 359.869 370.728 376.85 371.036 393.822C371.125 398.715 369.588 399.954 364.83 399.938C320.551 399.791 276.272 399.88 231.611 399.855C230.468 399.89 229.705 399.972 228.942 400.053Z" fill="#F19E77"/>
<path d="M668.548 341.182C682.484 359.192 696.42 377.201 710.198 395.647C709.932 396.583 709.826 397.084 709.72 397.586C710.181 397.231 710.643 396.877 711.104 396.523C711.409 396.855 711.713 397.187 711.821 398.068C709.409 399.022 707.193 399.426 704.511 399.829C662.031 399.785 620.017 399.743 577.691 399.484C575.275 399.166 573.171 399.065 571.009 398.548C571.007 396.74 571.064 395.348 571.391 393.647C571.762 378.16 571.872 362.981 571.929 347.802C571.931 347.221 571.425 346.637 571.08 345.676C571.01 344.531 571.016 343.763 571.178 342.93C571.412 342.782 571.566 342.684 571.552 342.622C571.507 342.416 571.402 342.222 571.161 342.036C571.002 342.049 570.69 342.118 570.977 341.879C585.866 341.504 600.469 341.364 615.071 341.234C631.702 341.085 648.333 340.945 665.309 340.976C666.619 341.161 667.584 341.171 668.548 341.182Z" fill="#F19F78"/>
<path d="M178.855 465.006C191.143 448.88 203.424 432.75 215.723 416.634C218.245 413.329 220.834 410.076 224.124 406.791C254.577 406.802 284.297 406.821 314.066 407.213C314.176 408.083 314.237 408.58 314.182 409.526C314.042 426.689 314.047 443.402 313.958 460.115C313.949 461.844 313.388 463.57 312.611 465.273C270.108 465.279 228.078 465.309 185.672 465.22C184.519 465.169 183.742 465.238 182.668 465.296C181.976 465.323 181.581 465.36 180.812 465.261C179.911 465.086 179.383 465.046 178.855 465.006Z" fill="#F1A078"/>
<path d="M718.888 406.717C733.752 425.952 748.615 445.186 763.097 464.77C719.453 465.159 676.191 465.176 632.929 465.287C629.802 465.295 628.493 464.473 628.52 461.094C628.655 444.289 628.55 427.482 628.647 410.677C628.654 409.365 629.568 408.059 630.518 406.83C638.473 406.943 645.971 407.022 653.469 406.999C673.289 406.937 693.11 406.83 713.356 406.805C715.483 406.818 717.185 406.767 718.888 406.717Z" fill="#F19F78"/>
<path d="M380.608 202.802C391.674 188.274 402.697 173.712 413.818 159.225C431.515 136.17 449.278 113.165 467.323 90.0801C467.774 90.3476 467.915 90.6742 467.925 91.4545C467.765 127.627 467.732 163.346 467.72 199.065C467.72 200.047 467.951 201.029 468.038 202.028C468.002 202.044 468.04 202.114 467.809 202.168C467.313 202.427 467.161 202.696 466.831 203.032C466.357 203.109 466.176 203.183 465.754 203.146C465.341 203.081 465.171 203.127 464.54 203.073C438.053 203.018 412.024 203.063 385.557 203.018C383.615 202.885 382.111 202.844 380.608 202.802Z" fill="#F9FAFB"/>
<path d="M475.125 89.9412C488.438 107.106 501.789 124.242 515.052 141.445C530.661 161.69 546.195 181.994 561.434 202.611C532.444 202.947 503.783 202.944 475.05 202.62C474.867 201.872 474.758 201.446 474.75 200.561C474.818 165.729 474.783 131.356 474.859 96.5558C475.022 94.0657 475.074 92.0034 475.125 89.9412Z" fill="#F9FCFD"/>
<path d="M630.06 406.75C629.568 408.059 628.654 409.365 628.647 410.677C628.55 427.482 628.655 444.289 628.52 461.094C628.493 464.473 629.802 465.296 632.929 465.287C676.191 465.176 719.453 465.159 763.25 465.115C765.521 467.306 767.256 469.5 769.074 471.982C764.69 472.363 760.224 472.535 755.759 472.537C663.601 472.567 571.443 472.583 479.286 472.59C428.292 472.593 377.299 472.559 326.305 472.57C275.657 472.581 225.009 472.629 173.831 472.603C174.247 471.118 175.192 469.69 176.809 468.101C178.716 467.092 179.951 466.245 181.186 465.397C181.581 465.36 181.975 465.323 182.891 465.468C184.291 465.546 185.17 465.443 186.048 465.34C228.078 465.31 270.108 465.279 312.803 465.464C313.995 465.776 314.523 465.873 315.282 465.974C315.515 465.977 315.979 465.99 316.191 466.252C317.601 466.347 318.798 466.181 319.999 465.544C320.002 446.383 320.001 427.692 320.24 409.001C320.479 409.001 320.959 409.01 321.173 409.354C321.466 426.168 321.713 442.641 321.516 459.109C321.461 463.752 322.497 465.362 327.479 465.34C372.087 465.142 416.696 465.219 461.306 465.215C463.084 465.215 464.861 465.215 467.063 465.215C467.063 445.36 467.063 426.113 467.254 406.707C468.306 407.376 469.167 408.203 470.023 409.498C470.015 426.923 469.973 443.883 470.088 460.841C470.097 462.181 471.206 463.514 471.804 464.85C472.53 463.477 473.876 462.11 473.889 460.73C474.037 444.77 474.03 428.808 473.897 412.848C473.886 411.548 472.652 410.258 472.045 408.626C473.055 407.853 474.007 407.419 474.926 407.453C474.893 426.835 474.893 445.748 474.893 464.848C523.923 464.848 572.228 464.848 620.995 464.848C620.995 446.216 620.941 427.947 621.044 409.678C621.063 406.389 618.855 407.025 617.008 406.563C617.005 406.368 616.999 405.978 617.05 405.639C619.568 404.743 622.332 403.207 624.438 403.844C628.166 404.973 627.999 405.526 629.329 401.013C630.793 401.348 631.904 401.687 633.011 402.42C633.017 403.865 633.026 404.916 632.713 405.978C631.613 406.242 630.837 406.496 630.06 406.75ZM625.993 421.515C625.993 417.402 625.993 413.289 625.993 409.176C622.211 412.572 622.289 461.743 625.993 464.738C625.993 450.663 625.993 436.587 625.993 421.515ZM424.5 469.992C438.224 469.992 451.948 469.992 465.672 469.992C465.668 469.758 465.664 469.525 465.66 469.291C418.154 469.291 370.648 469.291 323.142 469.291C323.142 469.525 323.142 469.758 323.142 469.992C356.594 469.992 390.047 469.992 424.5 469.992ZM524.5 469.992C555.557 469.992 586.613 469.992 617.67 469.992C617.668 469.757 617.666 469.522 617.664 469.288C572.153 469.288 526.642 469.288 481.132 469.288C481.131 469.522 481.13 469.757 481.129 469.992C495.252 469.992 509.376 469.992 524.5 469.992ZM716.5 469.992C730.888 469.992 745.276 469.992 759.664 469.992C759.66 469.758 759.657 469.525 759.653 469.292C717.816 469.292 675.979 469.292 634.142 469.292C634.142 469.525 634.141 469.758 634.141 469.992C661.261 469.992 688.38 469.992 716.5 469.992ZM297.494 469.006C260.439 469.006 223.384 469.006 186.328 469.006C186.33 469.241 186.332 469.476 186.334 469.71C228.178 469.71 270.022 469.71 311.867 469.71C311.87 469.476 311.874 469.241 311.878 469.006C307.415 469.006 302.953 469.006 297.494 469.006Z" fill="#E5110C"/>
<path d="M475.122 202.942C503.783 202.944 532.444 202.947 561.577 202.911C563.69 204.924 565.332 206.974 567.091 209.324C565.426 209.753 563.644 209.881 561.42 209.743C560.978 209.476 560.957 209.068 561.125 208.812C561.669 204.208 558.276 206.11 556.653 206.1C534.01 205.963 511.366 206.008 488.723 206.008C483.833 206.008 478.944 206.008 475.089 206.008C474.358 207.045 473.676 208.013 472.741 208.982C472.32 208.977 472.151 208.972 471.944 208.609C471.004 207.241 470.129 205.399 469.197 205.37C465.771 205.262 462.325 205.977 458.886 205.987C435.76 206.056 412.634 206.05 389.508 205.983C386.979 205.976 384.452 205.423 380.728 204.981C383.325 204.058 384.661 203.583 385.996 203.109C412.024 203.063 438.053 203.018 464.621 203.232C465.439 203.413 465.717 203.335 465.995 203.256C466.176 203.183 466.357 203.109 467.054 202.962C467.856 202.709 468.012 202.451 468.04 202.114C468.04 202.114 468.002 202.044 468.333 201.733C468.772 200.771 468.974 200.121 468.974 199.471C468.986 164.554 468.99 129.636 468.938 94.7183C468.936 93.4786 468.363 92.2398 468.055 91.0006C467.915 90.6741 467.774 90.3475 467.533 89.7693C467.59 89.3462 467.758 89.1873 468.287 88.905C468.854 88.5795 468.959 88.3404 468.952 88.0518C468.952 88.0518 468.95 87.9738 469.211 88.1486C470.019 88.8191 470.517 89.3886 471.125 89.7925C471.919 90.3196 473.309 90.5352 473.546 91.2026C474.196 93.0411 474.38 95.0451 474.748 96.9837C474.783 131.356 474.818 165.729 474.524 200.701C474.504 201.847 474.813 202.395 475.122 202.942Z" fill="#E40717"/>
<path d="M577.126 222.56C588.793 237.663 600.46 252.766 611.977 268.134C611.197 268.572 610.566 268.745 609.959 268.923C609.983 268.928 609.932 268.9 609.701 268.791C609.314 268.749 609.158 268.817 608.55 268.745C600.748 268.677 593.398 268.749 585.682 268.67C582.542 268.346 579.765 268.174 577.009 267.627C576.977 266.509 576.925 265.765 576.955 264.557C577.067 250.249 577.096 236.404 577.126 222.56Z" fill="#F9F9F9"/>
<path d="M628.429 289.007C639.869 303.794 651.309 318.582 662.38 333.708C650.755 333.95 639.499 333.853 628.284 333.409C628.223 332.377 628.119 331.692 628.108 330.545C628.203 320.053 628.257 310.022 628.156 299.992C628.139 298.3 627.452 296.615 627.127 294.638C627.597 292.568 628.013 290.788 628.429 289.007Z" fill="#F7F6F6"/>
<path d="M279.696 333.904C290.873 319.256 302.05 304.608 313.586 290.16C314.059 291.238 314.174 292.115 314.234 293.366C314.221 294.491 314.263 295.242 314.224 296.246C314.2 296.665 314.257 296.832 314.24 297.462C314.208 308.269 314.25 318.612 314.183 329.366C314.058 331.187 314.043 332.599 313.56 334.066C305.071 334.159 297.05 334.198 288.576 334.152C285.314 334.014 282.505 333.959 279.696 333.904Z" fill="#F9FAFB"/>
<path d="M330.077 268.295C341.413 253.539 352.748 238.783 364.374 224.274C364.664 239.018 364.664 253.516 364.664 268.782C354.483 268.782 345.084 268.782 335.468 268.692C334.917 268.54 334.624 268.621 334.179 268.707C333.549 268.66 333.11 268.752 332.328 268.76C331.635 268.935 331.286 269.194 330.925 269.191C330.634 268.718 330.356 268.506 330.077 268.295Z" fill="#F7F6F6"/>
<path d="M289.028 334.236C297.05 334.198 305.071 334.159 313.816 334.071C314.71 334.015 314.88 334.009 315.31 333.985C315.724 333.297 315.878 332.628 316.324 331.665C316.738 318.18 316.914 304.989 316.898 291.798C316.896 290.539 315.697 289.282 315.053 288.023C316.813 285.647 318.572 283.272 320.624 280.692C321.015 297.014 321.142 313.538 321.138 330.063C321.138 331.118 320.113 332.172 319.217 333.812C319.3 334.972 319.653 335.911 320.18 336.021C320.694 336.128 321.384 335.389 322.336 335.02C323.448 335.347 324.223 335.676 324.86 336.213C325.809 336.282 326.895 336.143 327.989 336.002C327.996 336 328.007 335.989 328.256 335.996C328.506 336.003 329.005 336.019 329.302 336.312C342.502 336.604 355.405 336.604 368.308 336.604C368.302 337.403 368.296 338.202 368.289 339.001C338.86 339.001 309.431 339.001 280.001 339C280.001 339 279.999 338.998 279.891 338.739C279.521 337.984 279.257 337.488 278.997 336.996C279 337 278.991 336.996 279.338 336.995C280.778 336.35 281.871 335.707 283.232 335.22C284.325 335.909 285.151 336.441 286.328 336.978C287.453 336.347 288.227 335.712 289.015 334.866C289.029 334.656 289.028 334.236 289.028 334.236ZM314.104 336.296C313.834 336.55 313.558 336.799 313.307 337.07C313.292 337.085 313.471 337.28 313.56 337.392C313.842 337.126 314.125 336.861 314.104 336.296Z" fill="#E40717"/>
<path d="M335.685 268.782C345.084 268.782 354.483 268.782 364.664 268.782C364.664 253.516 364.664 239.018 364.614 223.91C366.116 221.228 367.669 219.157 369.601 217.041C369.981 216.995 370.127 217.192 370.077 217.64C370.014 232.009 370.036 245.93 369.945 259.851C369.934 261.573 369.329 263.292 369.001 264.543C369.002 253.272 369.002 242.472 369.002 231.672C367.558 231.975 367.109 232.335 367.107 232.698C367.039 242.687 366.971 252.678 367.074 262.666C367.082 263.451 368.337 264.223 369.01 265.415C369.008 267.212 369.008 268.594 368.978 270.296C368.629 271.4 368.311 272.186 367.553 272.975C365.063 272.985 363.012 272.992 360.497 272.997C355.232 272.994 350.431 272.995 345.63 272.992C340.757 272.99 335.883 272.985 331.161 272.665C332.519 271.575 333.756 270.839 334.917 270C335.278 269.739 335.435 269.196 335.685 268.782Z" fill="#E31A23"/>
<path d="M633.036 405.966C633.026 404.916 633.017 403.865 633.478 402.413C658.486 402.01 683.023 402.036 707.561 401.949C709.37 401.943 711.176 401.126 713.251 400.711C713.696 400.734 713.875 400.733 714.054 400.731C715.617 402.523 717.18 404.315 718.815 406.412C717.185 406.767 715.483 406.818 713.031 406.562C710.464 406.167 708.647 406.002 706.829 406C682.232 405.976 657.634 405.974 633.036 405.966Z" fill="#E40724"/>
<path d="M360.962 272.999C363.012 272.992 365.063 272.985 367.9 273.133C370.797 273.199 372.908 273.11 375.344 273.018C376.102 273.018 376.535 273.021 377.272 273.314C379.38 273.735 381.184 273.982 382.988 273.984C407.043 274.01 431.097 274.002 455.152 273.999C457.806 273.999 460.483 274.195 463.11 273.918C469.888 273.202 469.879 273.116 469.765 280.116C469.283 280.42 469.099 280.677 468.714 281.004C468.24 281.024 468.051 281.034 467.862 281.043C467.517 279.612 467.173 278.181 466.641 275.975C465.088 275.975 463.347 275.976 461.606 275.974C418.519 275.937 375.432 275.907 332.346 275.832C330.387 275.829 328.428 275.411 326.038 275.071C326.782 273.271 327.957 271.586 329.619 270.075C330.383 269.983 330.66 269.718 330.937 269.452C331.286 269.194 331.635 268.935 332.752 268.799C333.804 268.897 334.087 268.871 334.37 268.846C334.623 268.621 334.917 268.54 335.468 268.692C335.434 269.196 335.278 269.739 334.917 270C333.756 270.839 332.519 271.575 330.864 272.723C330.316 273.329 330.201 273.558 330.137 273.8C330.128 273.833 330.371 273.993 330.498 273.993C339.109 274.006 347.72 274.058 356.329 273.967C357.877 273.95 359.418 273.337 360.962 272.999Z" fill="#E51A09"/>
<path d="M628.242 333.757C639.499 333.853 650.756 333.95 662.477 334.03C664.734 336.214 666.527 338.414 668.434 340.898C667.584 341.172 666.619 341.161 665.207 340.599C663.066 339.698 661.373 339.048 659.679 339.044C633.921 338.975 608.162 338.998 582.404 338.97C580.794 338.968 579.184 338.721 577.574 338.589C577.617 338.06 577.661 337.53 577.704 337.001C579.27 337.001 580.835 337.001 582.401 337.001C592.206 337.001 602.011 337.05 611.815 336.956C613.536 336.939 615.252 336.326 616.979 335.732C616.99 335.304 616.992 335.133 616.99 334.78C616.984 334.598 616.976 334.233 616.976 334.233C618.044 334.181 619.111 334.13 620.597 334.085C621.016 334.091 621.093 334.21 621.079 334.566C623.939 340.256 625.503 333.733 627.946 334.078C628.056 333.982 628.242 333.757 628.242 333.757Z" fill="#E30D25"/>
<path d="M385.557 203.018C384.661 203.583 383.325 204.058 380.728 204.981C384.452 205.423 386.979 205.976 389.508 205.983C412.634 206.05 435.76 206.056 458.886 205.987C462.326 205.977 465.771 205.262 469.198 205.37C470.129 205.399 471.004 207.241 471.477 208.616C443.591 208.983 416.134 208.985 388.676 208.984C387.345 208.983 385.344 209.501 384.794 208.836C381.574 204.944 378.76 208.177 375.808 209.007C377.231 207.059 378.653 205.111 380.342 202.983C382.111 202.844 383.615 202.885 385.557 203.018Z" fill="#E2202C"/>
<path d="M375.607 209.062C378.76 208.177 381.574 204.944 384.794 208.836C385.344 209.501 387.345 208.984 388.676 208.984C416.134 208.985 443.591 208.983 471.516 208.974C472.151 208.972 472.32 208.977 473.152 208.987C477.895 208.994 481.976 208.993 486.056 208.997C511.023 209.02 535.99 209.044 560.957 209.068C560.957 209.068 560.978 209.476 560.979 209.681C555.65 209.944 550.321 210.056 544.991 210.055C488.661 210.046 432.33 210.019 375.544 209.922C375.043 209.538 375.148 209.294 375.607 209.062Z" fill="#E11F03"/>
<path d="M617.715 275.264C604.128 275.582 590.487 275.892 576.845 275.906C543.532 275.94 510.219 275.838 476.474 275.322C477.532 274.24 479.059 273.025 480.505 273.115C487.43 273.543 494.327 274.812 501.244 274.89C523.056 275.135 544.873 274.982 566.687 274.978C570.124 274.978 573.561 274.952 577.466 274.949C591.003 274.904 604.07 274.849 617.138 274.794C617.355 274.835 617.529 274.944 617.715 275.264Z" fill="#E51A09"/>
<path d="M577.026 222.254C577.096 236.404 577.067 250.249 576.595 264.549C575.435 265.001 574.716 264.997 573.998 264.997C574 265 574.007 265.003 574.006 264.534C574.004 252.768 573.861 241.467 574.091 230.174C574.158 226.864 573.404 224.776 570.071 224.016C570.072 221.093 570.073 218.17 570.201 214.745C572.528 216.812 574.727 219.38 577.026 222.254Z" fill="#E30D25"/>
<path d="M617.151 274.458C604.07 274.849 591.003 274.904 577.464 274.707C576.992 274.455 577 273.971 577.469 273.981C587.898 273.99 597.858 273.99 607.818 273.99C607.815 273.661 607.812 273.332 607.809 273.003C597.54 273.003 587.272 273.003 577.001 272.755C576.999 272.508 576.998 272.013 577.467 272.005C587.905 271.998 597.874 271.998 607.843 271.998C607.841 271.661 607.838 271.325 607.836 270.988C600.226 270.988 592.615 270.988 585.121 270.71C585.507 269.895 585.777 269.359 586.047 268.822C593.398 268.749 600.748 268.677 608.62 268.935C609.405 269.143 609.668 269.022 609.932 268.9C609.932 268.9 609.983 268.928 610.375 268.96C611.324 268.948 611.882 268.905 612.439 268.862C614.014 270.616 615.589 272.369 617.151 274.458Z" fill="#E5040E"/>
<path d="M314.018 406.84C284.297 406.821 254.577 406.802 224.426 406.586C225.474 404.404 226.953 402.419 228.687 400.244C229.705 399.971 230.468 399.89 231.615 400.198C232.002 401.045 232.006 401.502 231.707 402.122C231.616 403.36 231.549 405.164 232.091 405.37C233.569 405.934 235.304 405.957 236.938 405.959C262.291 405.995 287.645 405.994 313.256 406.016C313.683 406.044 313.854 406.058 314.03 406.264C314.035 406.456 314.018 406.84 314.018 406.84Z" fill="#E51A09"/>
<path d="M628.266 288.687C628.013 290.787 627.597 292.568 626.77 294.834C625.9 296.493 625.05 297.663 625.039 298.841C624.938 310.077 624.979 321.314 624.979 333.668C626.822 332.053 627.419 331.53 628.016 331.007C628.119 331.691 628.223 332.376 628.284 333.409C628.242 333.757 628.056 333.982 627.531 334.025C625.035 334.116 623.064 334.163 621.093 334.21C621.093 334.21 621.016 334.091 620.994 334.024C621.017 333.508 621.063 333.059 621.54 332.206C622.656 329.846 623.898 327.9 623.931 325.934C624.123 314.811 624.108 303.68 623.902 292.557C623.88 291.381 622.154 290.236 621.218 289.076C621.194 286.157 621.17 283.238 621.209 279.978C623.549 282.547 625.826 285.457 628.266 288.687Z" fill="#E2202C"/>
<path d="M371.103 214.936C371.521 220.932 371.871 227.058 371.888 233.185C371.918 243.981 371.744 254.778 371.367 265.464C371.054 251.035 371.06 236.718 370.968 222.401C370.957 220.663 370.42 218.928 370.127 217.192C370.127 217.192 369.981 216.995 369.902 216.901C370.177 216.227 370.532 215.646 371.103 214.936Z" fill="#E60B20"/>
<path d="M314.818 288.124C315.697 289.282 316.896 290.539 316.898 291.799C316.914 304.989 316.738 318.18 316.317 331.296C316.004 330.48 315.991 329.739 315.987 328.53C315.997 315.697 315.997 303.333 315.997 290.158C315.105 291.639 314.697 292.316 314.289 292.993C314.174 292.115 314.059 291.238 313.841 289.925C314.019 289.068 314.301 288.646 314.818 288.124Z" fill="#E2202C"/>
<path d="M867.645 625.256C867.33 617.503 867.31 609.795 867.279 601.641C867.56 606.697 867.875 612.198 868.132 617.703C868.232 619.846 868.201 621.995 868.358 624.599C868.303 625.139 868.122 625.22 867.645 625.256Z" fill="#7D7A83"/>
<path d="M474.859 96.5558C474.38 95.0451 474.197 93.0411 473.546 91.2026C473.31 90.5352 471.919 90.3196 471.125 89.7925C470.517 89.3886 470.019 88.8192 469.249 88.1392C471.655 85.3145 473.324 86.9762 474.991 89.5984C475.074 92.0034 475.022 94.0656 474.859 96.5558Z" fill="#E2202C"/>
<path d="M74.5385 624.947C76.4339 624.962 77.8722 625.043 79.7105 625.284C74.3576 625.501 68.6045 625.557 62.5498 625.386C66.1925 625.11 70.1369 625.062 74.5385 624.947Z" fill="#7D7A83"/>
<path d="M285.976 336.974C285.151 336.442 284.325 335.909 282.875 335.196C281.536 335.056 280.822 335.098 279.972 334.988C279.835 334.836 279.547 334.545 279.547 334.545C279.547 334.545 279.514 334.2 279.605 334.052C282.505 333.959 285.314 334.014 288.576 334.153C289.028 334.236 289.029 334.656 288.694 334.869C287.565 335.713 286.77 336.343 285.976 336.974Z" fill="#E2202C"/>
<path d="M714.01 400.459C713.875 400.733 713.696 400.734 713.031 400.507C710.022 400.129 707.5 399.98 704.977 399.83C707.193 399.426 709.409 399.022 711.939 398.388C712.825 398.834 713.396 399.51 714.01 400.459Z" fill="#F07459"/>
<path d="M180.812 465.261C179.951 466.245 178.716 467.092 177.081 467.93C177.211 467.027 177.741 466.132 178.563 465.122C179.383 465.046 179.911 465.086 180.812 465.261Z" fill="#E13E3D"/>
<path d="M276.113 340.98C275.697 340.984 275.281 340.988 274.559 340.939C275.488 339.196 276.724 337.506 278.384 335.81C278.809 335.806 279.101 336.082 279.063 336.309C279.024 336.536 278.991 336.996 278.991 336.996C278.991 336.996 279 337 278.713 337.145C277.938 338.195 277.45 339.098 276.763 340.109C276.315 340.413 276.164 340.667 276.113 340.98Z" fill="#E2202C"/>
<path d="M711.106 396.373C710.643 396.877 710.181 397.232 709.72 397.586C709.826 397.085 709.932 396.583 710.352 395.971C710.887 395.891 711.035 396.012 711.106 396.373Z" fill="#F07459"/>
<path d="M330.925 269.191C330.66 269.718 330.383 269.984 329.979 270.093C329.894 269.571 329.936 269.205 330.028 268.566C330.356 268.506 330.634 268.718 330.925 269.191Z" fill="#E31A23"/>
<path d="M612.452 268.777C611.881 268.905 611.324 268.948 610.351 268.954C610.566 268.745 611.197 268.572 612.174 268.464C612.52 268.528 612.466 268.692 612.452 268.777Z" fill="#E60B20"/>
<path d="M468.754 88.1101C468.959 88.3404 468.854 88.5795 468.449 88.8317C468.213 88.5932 468.312 88.3512 468.754 88.1101Z" fill="#E2202C"/>
<path d="M278.671 335.66C278.713 335.243 278.893 334.971 279.31 334.622C279.547 334.545 279.835 334.835 279.835 335.176C279.631 335.757 279.386 335.946 279.101 336.082C279.101 336.082 278.809 335.806 278.671 335.66Z" fill="#E2202C"/>
<path d="M74.9723 684.86C74.9723 670.549 74.9723 656.238 74.9723 641.395C78.8249 640.913 82.3761 640.081 85.9276 640.08C344.038 640.019 602.149 640.023 860.259 640.031C866.705 640.031 866.934 640.399 867.061 646.814C867.308 659.275 867.67 671.734 867.508 684.593C824.819 684.993 782.605 684.993 740.376 684.993C740.376 690.045 740.376 694.589 740.376 699.1C741.245 699.206 741.739 699.319 742.233 699.319C783.339 699.328 824.444 699.329 865.55 699.315C866.372 699.315 867.194 699.128 868.016 699.028C867.69 712.654 867.256 726.278 867.116 739.906C867.08 743.328 865.783 744.349 862.666 744.018C861.348 743.878 860.002 743.995 858.669 743.995C599.382 743.999 340.094 743.992 80.8073 744.096C76.3438 744.097 74.7633 743.109 74.8865 738.357C75.2145 725.701 74.9755 713.031 75.4296 699.897C117.944 699.427 159.992 699.427 202.096 699.427C202.096 694.166 202.096 689.768 202.096 684.86C159.495 684.86 117.234 684.86 74.9723 684.86ZM597.5 684.952C571.124 684.952 544.748 684.952 518.383 684.952C518.383 690.087 518.383 694.503 518.383 699.05C561.02 699.05 603.352 699.05 645.769 699.05C645.769 694.217 645.769 689.694 645.769 684.952C629.751 684.952 614.126 684.952 597.5 684.952ZM334.5 684.951C321.889 684.951 309.277 684.951 296.469 684.951C296.469 689.93 296.469 694.339 296.469 699.025C339.143 699.025 381.519 699.025 424.065 699.025C424.065 694.287 424.065 689.87 424.065 684.951C394.402 684.951 364.951 684.951 334.5 684.951Z" fill="#4E4A46"/>
<path d="M868.036 698.562C867.194 699.128 866.372 699.315 865.55 699.315C824.444 699.329 783.339 699.328 742.233 699.319C741.739 699.319 741.245 699.206 740.376 699.1C740.376 694.589 740.376 690.045 740.376 684.993C782.605 684.993 824.819 684.993 867.496 685.038C867.993 689.421 868.025 693.759 868.036 698.562Z" fill="#FBFDFD"/>
<path d="M74.7303 685.203C117.234 684.86 159.495 684.86 202.096 684.86C202.096 689.768 202.096 694.166 202.096 699.427C159.992 699.427 117.945 699.427 75.4269 699.459C74.8003 694.843 74.6443 690.195 74.7303 685.203Z" fill="#FAFDFD"/>
<path d="M206.264 879.651C206.363 879.961 206.254 880.309 206.146 880.657C206.116 880.335 206.086 880.012 206.264 879.651Z" fill="#273F92"/>
<path d="M217.853 855.221C217.978 855.671 217.817 856.286 217.383 857.074C217.262 856.627 217.415 856.006 217.853 855.221Z" fill="#273F92"/>
<path d="M218.774 853.188C218.889 853.598 218.745 854.182 218.351 854.944C218.239 854.535 218.377 853.948 218.774 853.188Z" fill="#273F92"/>
<path d="M310.692 559.085C319.807 556.356 323.707 549.335 326.622 541.417C327.138 541.544 327.654 541.671 328.169 541.797C327.179 549.081 326.188 556.364 325.178 563.784C304.379 563.784 283.931 563.784 262.501 563.784C273.049 559.356 273.048 559.356 273.049 547.789C273.051 533.304 273.059 518.818 273.055 504.333C273.053 496.485 272.68 496.065 264.966 494.71C264.412 494.612 263.903 494.254 263.499 493.268C283.112 493.268 302.726 493.268 322.67 493.268C322.67 499.974 322.67 506.776 322.67 513.578C319.232 507.832 317.991 500.302 310.384 498.62C304.035 497.215 297.421 497.006 290.552 496.226C290.552 506.71 290.552 515.97 290.552 525.623C295.461 526.387 299.678 525.149 302.038 520.866C304.033 517.248 304.979 513.052 307.203 509.203C307.203 521.487 307.203 533.771 307.203 546.055C303.623 538.652 302.46 529.256 290.815 530.278C290.815 538.91 290.592 547.367 291.023 555.79C291.1 557.288 293.831 559.766 295.448 559.859C300.368 560.144 305.343 559.484 310.692 559.085Z" fill="#0B3691"/>
<path d="M443.217 523.62C449.917 497.177 472.097 485.246 497.439 494.071C503.916 496.326 503.916 496.326 510.502 490.921C510.502 499.337 510.502 507.44 510.502 515.543C510.106 515.685 509.71 515.827 509.314 515.969C508.585 514.376 507.807 512.804 507.134 511.188C500.273 494.721 480.258 490.237 469.622 503.383C465.856 508.038 463.634 514.55 462.467 520.556C460.743 529.432 461.888 538.531 465.079 547.093C470.316 561.144 486.381 565.485 499.96 556.546C503.125 554.462 505.834 551.686 508.753 549.228C509.194 549.385 509.634 549.542 510.075 549.699C509.105 551.9 508.669 554.643 507.078 556.216C496.539 566.63 478.384 569.031 463.243 562.339C450.074 556.517 442.416 543.596 442.927 528.042C442.971 526.711 443.059 525.381 443.217 523.62Z" fill="#0B3691"/>
<path d="M232.596 496.023C218.313 495.797 209.951 503.086 206.989 517.866C205.145 527.066 206.085 536.144 208.654 544.995C213.395 561.325 231.943 566.336 246.08 555.244C248.541 553.312 250.732 551.037 253.217 548.766C255.239 553.232 252.682 555.546 249.724 557.828C236.105 568.335 221.252 568.527 206.457 561.648C192.285 555.059 186.486 542.661 187.103 527.363C188.077 503.218 213.054 485.731 236.656 492.461C238.094 492.871 239.506 493.376 240.925 493.851C249.099 496.585 249.099 496.586 254.565 490.714C254.565 499.286 254.565 507.381 254.565 515.476C254.232 515.786 253.899 516.096 253.565 516.405C249.952 506.064 244.398 497.855 232.596 496.023Z" fill="#0B3691"/>
<path d="M388.089 492.827C390.212 493.514 391.972 494.024 393.653 494.723C398.154 496.594 402.146 497.116 404.753 491.244C404.753 499.348 404.753 507.452 404.753 515.556C404.447 515.648 404.141 515.741 403.835 515.833C403.026 513.967 402.256 512.083 401.401 510.239C397.352 501.507 390.773 496.298 380.924 495.978C370.897 495.653 363.91 500.814 360.18 509.565C354.483 522.931 355.119 536.778 361.099 549.782C366.816 562.216 383.35 564.843 395.483 556.029C398.269 554.005 400.742 551.55 403.49 549.18C405.267 552.84 403.44 555.067 400.951 557.235C389.53 567.183 370.204 568.973 355.906 561.335C342.654 554.256 335.779 539.866 337.984 523.824C340.059 508.729 352.651 494.842 368.038 492.222C374.375 491.143 381.126 492.492 388.089 492.827Z" fill="#0B3691"/>
<path d="M594.402 516.269C606.772 510.191 615.312 514.773 616.144 527.964C616.71 536.926 616.483 545.939 616.621 554.929C616.677 558.557 617.026 562.026 621.497 563.609C613.459 563.609 605.42 563.609 596.124 563.609C602.588 560.288 601.733 554.995 601.749 550.006C601.773 542.843 601.959 535.67 601.642 528.52C601.497 525.257 601.745 520.976 596.57 520.881C592.835 520.812 588.827 525.041 588.778 529.207C588.672 538.035 588.519 546.877 588.93 555.688C589.054 558.353 590.971 560.935 592.113 563.665C585.04 563.665 576.881 563.665 568.722 563.665C574.175 561.41 573.859 556.83 573.842 552.345C573.809 543.849 573.708 535.35 573.878 526.856C573.972 522.157 573.909 517.789 568.393 515.492C574.888 515.492 581.383 515.492 588.294 515.492C588.52 516.654 588.815 518.175 589.193 520.116C590.989 518.791 592.544 517.645 594.402 516.269Z" fill="#0A3591"/>
<path d="M704.345 537.868C696.105 537.864 688.296 537.864 680.563 537.864C679.279 544.505 682.478 552.792 687.702 555.961C695.676 560.798 700.545 555.313 705.645 550.113C704.601 555.671 701.688 559.806 697.21 562.709C687.103 569.26 674.262 565.815 668.588 555.184C662.082 542.993 665.186 525.358 675.172 517.78C681.726 512.807 689.936 512.071 696.189 515.896C702.431 519.713 707.577 530.343 706.283 536.94C706.206 537.334 705.298 537.566 704.345 537.868ZM690.665 518.911C687.243 515.427 683.942 516.611 682.275 520.237C680.383 524.352 679.716 529.031 678.425 533.799C684.202 533.799 688.575 533.799 694.155 533.799C693.069 528.683 692.1 524.121 690.665 518.911Z" fill="#0D3892"/>
<path d="M549.988 537.861C544.866 537.861 540.239 537.861 535.171 537.861C535.806 545.519 537.345 552.34 543.938 556.281C551.68 560.909 556.267 554.646 561.3 549.461C560.812 557.595 552.459 565.139 544.015 565.88C535.015 566.67 527.545 562.612 523.821 554.314C519.42 544.508 519.643 534.543 524.595 525.002C529.214 516.103 539.472 511.602 548.055 514.183C556.556 516.741 562.397 526.55 561.739 537.861C558.019 537.861 554.251 537.861 549.988 537.861ZM546.315 534.138C547.21 533.473 548.908 532.756 548.868 532.153C548.623 528.378 548.395 524.505 547.302 520.927C546.808 519.311 544.382 517.35 542.752 517.275C541.071 517.197 538.35 518.848 537.738 520.396C536.1 524.543 535.347 529.04 534.053 534.146C538.765 534.146 542.06 534.146 546.315 534.138Z" fill="#0D3892"/>
<path d="M633.253 537.997C633.253 531.89 633.253 526.281 633.253 520.469C630.883 520.247 629.116 520.081 626.937 519.876C633.948 512.209 640.709 504.816 647.809 497.051C647.809 502.817 647.809 508.484 647.809 514.784C652.057 514.784 655.764 514.784 659.727 514.784C659.727 516.816 659.727 518.212 659.727 520.127C656.007 520.127 652.43 520.127 648.435 520.127C648.435 531.883 648.329 543.132 648.565 554.373C648.596 555.84 650.136 558.078 651.437 558.484C652.69 558.874 654.714 557.588 656.065 556.588C657.007 555.89 657.387 554.433 658.459 553.76C658.824 559.716 653.743 564.459 647.677 564.954C640.761 565.518 634.747 561.672 633.957 555.428C633.251 549.843 633.452 544.144 633.253 537.997Z" fill="#0B3691"/>
<path d="M748.24 513.59C752.463 513.537 755.352 515.263 755.233 519.268C755.157 521.824 754.223 525.361 752.414 526.564C750.73 527.684 746.992 527.016 744.841 525.862C740.246 523.398 737.81 523.48 735.937 528.314C732.101 538.213 732.609 548.585 734.028 558.839C734.26 560.518 737.015 561.847 738.864 563.582C730.508 563.582 722.012 563.582 711.923 563.582C719.238 561.063 718.748 555.953 718.721 551.067C718.674 542.242 718.52 533.416 718.542 524.591C718.552 520.592 717.621 517.373 713.251 515.575C719.646 515.575 726.041 515.575 733.049 515.575C733.049 518.329 733.049 521.348 733.049 523.468C738.021 520.19 742.951 516.939 748.24 513.59Z" fill="#0A3591"/>
<path d="M585.682 268.67C585.777 269.359 585.507 269.895 584.691 270.717C581.762 271.339 579.38 271.676 576.997 272.013C576.997 272.013 576.999 272.508 576.999 272.998C577 273.487 577 273.971 577 273.971C577 273.971 576.992 274.455 576.995 274.697C573.561 274.952 570.124 274.978 566.687 274.979C544.873 274.982 523.056 275.135 501.244 274.89C494.327 274.812 487.43 273.543 480.505 273.115C479.059 273.025 477.532 274.24 476.012 275.238C475.639 277.004 475.006 278.385 475.001 279.768C474.937 296.468 475.051 313.169 474.896 329.868C474.867 333.047 475.602 334.605 479.132 334.443C478.356 335.08 477.401 335.423 476.446 335.765C476.495 336.15 476.544 336.536 476.593 336.921C505.831 336.921 535.068 336.921 564.808 336.921C563.944 338.859 563.435 339.999 562.602 341.128C561.847 341.053 561.418 340.99 560.895 340.534C559.455 339.759 558.109 339.043 556.762 339.042C498.834 338.997 440.907 339.016 382.617 339.022C381.16 338.702 380.064 338.388 378.98 337.81C378.993 337.37 378.995 337.194 379.466 337.015C408.23 337.009 436.525 337.021 464.82 336.989C470.109 336.983 471.55 334.961 470.026 329.514C470.003 312.702 469.992 296.356 469.98 280.009C469.879 273.116 469.888 273.202 463.11 273.918C460.483 274.195 457.806 273.999 455.152 274C431.097 274.003 407.043 274.01 382.988 273.984C381.184 273.982 379.38 273.735 377.373 272.916C379.164 271.823 381.159 271.063 383.155 271.061C443.187 270.998 503.22 271.019 563.252 270.969C565.145 270.968 567.038 270.368 568.952 269.797C568.984 269.379 568.995 269.212 569.006 269.045C569.255 268.786 569.505 268.526 570.277 268.261C571.869 267.172 572.938 266.087 574.007 265.003C574.007 265.003 574 265 574.006 265.369C575.005 266.492 575.997 267.247 576.989 268.002C579.765 268.174 582.541 268.346 585.682 268.67Z" fill="#E60B20"/>
<path d="M568.551 268.917C568.995 269.212 568.984 269.379 568.491 269.777C503.664 270.013 439.319 270.019 374.756 269.915C374.27 269.606 374.08 269.348 373.97 269.031C374.791 268.927 375.612 268.732 376.434 268.732C440.321 268.741 504.208 268.766 568.551 268.917Z" fill="#E11F03"/>
<path d="M574.006 264.534C572.938 266.087 571.869 267.172 570.534 268.172C570.18 253.708 570.09 239.329 570.036 224.483C573.404 224.776 574.158 226.864 574.091 230.174C573.861 241.467 574.004 252.768 574.006 264.534Z" fill="#E50804"/>
<path d="M370.077 217.64C370.42 218.928 370.957 220.663 370.968 222.401C371.06 236.718 371.054 251.035 371.161 265.845C371.339 266.609 371.371 266.886 371.191 267.736C370.366 268.86 369.687 269.418 369.009 269.976C369.009 268.594 369.008 267.212 369.004 265.415C369 265 368.999 265.012 368.999 265.012C369.329 263.292 369.934 261.573 369.946 259.851C370.036 245.93 370.014 232.009 370.077 217.64Z" fill="#E50405"/>
<path d="M368.978 270.295C369.687 269.418 370.366 268.86 371.137 267.941C371.987 267.929 372.744 268.277 373.735 268.828C374.08 269.348 374.27 269.606 374.663 270.165C374.864 271.357 374.942 272.189 375.019 273.021C372.908 273.11 370.797 273.199 368.339 273.129C368.311 272.186 368.629 271.4 368.978 270.295Z" fill="#E60B20"/>
<path d="M470.039 329.98C471.551 334.96 470.109 336.983 464.82 336.989C436.525 337.021 408.23 337.009 379.038 337.006C375.952 337 373.763 337 371.574 337C371.432 337.576 371.289 338.152 371.146 338.728C373.086 339.817 375.026 340.906 376.971 342.464C376.986 360.628 376.996 378.323 376.72 395.761C375.951 392.932 375.082 390.364 375.053 387.787C374.91 375.005 374.999 362.219 374.976 349.435C374.972 347.371 375.611 344.779 372.041 344.678C371.649 343.53 371.268 342.735 370.888 341.939C370.527 341.471 370.167 341.002 369.157 340.307C340.897 340.053 313.287 340.045 285.676 339.956C283.784 339.95 281.894 339.333 280.002 339.001C309.431 339.001 338.861 339.001 368.29 339.001C368.296 338.202 368.302 337.403 368.308 336.605C355.405 336.605 342.502 336.605 329.77 336.303C373.082 335.998 416.223 336.009 459.364 335.952C461.264 335.95 463.164 335.334 465.394 335.004C466.491 334.685 467.256 334.366 468.243 333.884C468.296 333.142 468.126 332.562 467.957 331.983C467.893 331.547 467.829 331.111 468.108 330.345C468.634 330.011 468.818 330.006 469.261 329.999C469.693 329.991 469.866 329.986 470.039 329.98Z" fill="#E5040E"/>
<path d="M468.021 334.047C467.256 334.366 466.491 334.685 464.919 335.004C420.637 335.003 377.162 334.99 333.687 335.044C331.793 335.047 329.9 335.66 328.007 335.989C328.007 335.989 327.996 336 327.616 336C326.49 336.002 325.744 336.004 324.997 336.005C324.223 335.676 323.448 335.347 322.335 334.794C321.997 334.571 321.997 334.121 321.997 334.121C370.041 334.107 418.085 334.093 466.838 334.055C467.548 334.031 468.021 334.047 468.021 334.047Z" fill="#E41202"/>
<path d="M467.794 281.505C468.051 281.034 468.241 281.024 468.715 281.474C468.999 297.621 468.997 313.309 468.744 328.848C468.274 328.38 468.055 328.06 467.835 327.74C467.799 312.482 467.763 297.224 467.794 281.505Z" fill="#E50405"/>
<path d="M321.637 334.041C321.997 334.121 321.997 334.571 321.997 334.796C321.384 335.389 320.694 336.128 320.18 336.021C319.653 335.911 319.3 334.972 318.972 334.122C319.808 333.886 320.543 333.924 321.637 334.041Z" fill="#E5040E"/>
<path d="M468.243 333.884C468.021 334.047 467.547 334.031 467.311 334.029C467.242 333.487 467.411 332.947 467.768 332.195C468.126 332.562 468.296 333.142 468.243 333.884Z" fill="#E51A09"/>
<path d="M467.686 327.951C468.055 328.06 468.274 328.38 468.747 329.1C469.001 329.666 469.001 329.834 469.001 330.001C468.818 330.006 468.634 330.011 468.175 330.019C467.778 329.403 467.657 328.783 467.686 327.951Z" fill="#E51A09"/>
<path d="M562.927 341.14C563.435 339.999 563.944 338.859 564.808 336.921C535.068 336.921 505.831 336.921 476.593 336.921C476.544 336.535 476.495 336.15 476.446 335.765C477.401 335.422 478.356 335.08 479.554 334.526C480.953 334.218 482.109 334.037 483.265 334.037C527.528 334.037 571.791 334.054 616.515 334.15C616.976 334.233 616.984 334.597 616.521 334.793C571.434 334.989 526.809 334.989 482.185 334.989C482.185 335.322 482.186 335.655 482.187 335.988C527.114 335.988 572.042 335.988 616.97 335.988C615.252 336.325 613.536 336.939 611.815 336.955C602.011 337.049 592.206 337.001 582.401 337.001C580.835 337.001 579.269 337.001 577.704 337.001C577.66 337.53 577.617 338.059 577.574 338.589C579.184 338.721 580.794 338.968 582.403 338.97C608.162 338.998 633.921 338.975 659.679 339.044C661.373 339.048 663.066 339.698 664.861 340.425C648.333 340.945 631.702 341.085 615.071 341.234C600.469 341.364 585.866 341.504 570.812 341.953C570.164 342.419 570.017 342.611 569.693 342.732C568.645 342.429 567.823 342.233 566.616 342.027C565.456 342.033 564.682 342.048 563.695 341.969C563.22 341.688 563.035 341.443 562.927 341.14Z" fill="#E40B03"/>
<path d="M621.146 289.534C622.154 290.236 623.88 291.381 623.902 292.558C624.108 303.681 624.123 314.811 623.932 325.934C623.898 327.901 622.656 329.846 621.62 331.877C621.203 317.966 621.138 303.979 621.146 289.534Z" fill="#E41202"/>
<path d="M569.92 342.84C570.017 342.611 570.164 342.419 570.526 342.192C570.69 342.118 571.002 342.049 571.008 342.255C571.017 342.639 571.019 342.818 571.021 342.996C571.016 343.763 571.01 344.531 571.014 346.136C571.055 362.634 571.088 378.295 571.12 393.955C571.064 395.348 571.007 396.74 571.036 398.868C573.415 399.636 575.709 399.668 578.002 399.7C620.017 399.743 662.031 399.785 704.511 399.829C707.5 399.98 710.022 400.129 712.765 400.482C711.176 401.126 709.37 401.943 707.561 401.949C683.023 402.036 658.486 402.01 633.481 402.019C631.904 401.687 630.793 401.348 628.869 401.005C622.777 401.336 617.498 401.955 612.219 401.963C568.477 402.033 524.734 401.991 480.721 401.699C478.298 401.277 476.145 401.14 473.747 401.004C473.502 401.005 473.011 401.016 472.581 401.013C470.433 401.012 468.715 401.015 466.581 401.065C464.211 401.407 462.254 401.967 460.302 401.955C413.532 401.674 366.763 401.332 319.645 401.034C317.19 401.369 315.084 401.672 312.511 401.982C285.696 401.992 259.348 401.995 232.751 401.992C232.504 401.985 232.009 401.958 232.009 401.958C232.006 401.502 232.002 401.045 231.995 400.245C276.272 399.88 320.551 399.791 364.83 399.938C369.588 399.954 371.125 398.715 371.036 393.822C370.728 376.849 370.879 359.868 370.871 342.415C371.268 342.735 371.649 343.53 372.023 345.143C372.013 352.25 372.005 358.538 372.006 364.827C372.007 374.591 371.954 384.356 372.047 394.119C372.094 399.11 374.184 401.078 377.977 399.987C378.03 399.95 378.131 399.869 378.588 399.891C380.377 399.9 381.707 399.88 383.038 399.878C443.057 399.764 503.075 399.652 563.158 399.795C564.142 399.374 565.061 398.698 565.998 398.406C566.567 399.455 567.119 400.122 567.672 400.788C568.11 400.176 568.848 399.605 568.938 398.945C569.382 395.684 569.924 392.401 569.941 389.123C570.022 373.696 569.942 358.268 569.92 342.84Z" fill="#E11F03"/>
<path d="M280.001 339C281.894 339.333 283.784 339.95 285.676 339.956C313.287 340.045 340.897 340.053 369.022 340.125C367.983 340.534 366.431 341.214 364.878 341.214C335.592 341.228 306.305 341.162 276.566 341.046C276.164 340.667 276.315 340.413 277.087 340.085C278.406 339.636 279.202 339.317 279.999 338.999L280.001 339Z" fill="#E11F03"/>
<path d="M571.39 393.647C571.088 378.295 571.055 362.634 571.089 346.514C571.425 346.637 571.931 347.221 571.929 347.802C571.871 362.982 571.762 378.161 571.39 393.647Z" fill="#F19E77"/>
<path d="M577.691 399.484C575.709 399.668 573.415 399.636 571.094 399.284C573.171 399.065 575.275 399.166 577.691 399.484Z" fill="#F07459"/>
<path d="M571.178 342.93C571.019 342.818 571.017 342.64 571.168 342.243C571.402 342.222 571.507 342.416 571.552 342.622C571.565 342.684 571.412 342.782 571.178 342.93Z" fill="#F19E77"/>
<path d="M314.066 407.213C314.018 406.84 314.035 406.456 314.401 406.279C315.846 408.485 317.78 410.839 317.857 413.253C318.199 423.889 318.005 434.542 318.005 445.188C318.005 451.443 318.005 457.698 318.005 463.953C318.335 463.95 318.664 463.947 318.994 463.945C318.994 462.325 318.994 460.705 318.994 459.085C318.994 444.114 318.961 429.142 319.038 414.17C319.047 412.444 319.661 410.721 319.997 408.998C320.001 427.692 320.002 446.383 319.598 465.541C318.122 466.001 317.051 465.996 315.979 465.99C315.979 465.99 315.515 465.977 315.262 465.509C315.004 448.152 315.018 431.264 314.961 414.376C314.955 412.609 314.53 410.843 314.299 409.077C314.237 408.58 314.175 408.083 314.066 407.213Z" fill="#E50405"/>
<path d="M314.181 409.526C314.53 410.843 314.955 412.609 314.961 414.376C315.018 431.264 315.004 448.152 315.03 465.506C314.522 465.873 313.995 465.776 313.275 465.488C313.388 463.57 313.949 461.844 313.958 460.115C314.046 443.402 314.042 426.689 314.181 409.526Z" fill="#E51A09"/>
<path d="M185.672 465.22C185.17 465.443 184.291 465.546 183.189 465.478C183.742 465.238 184.519 465.169 185.672 465.22Z" fill="#E13E3D"/>
<path d="M632.713 405.977C657.634 405.974 682.232 405.976 706.83 406C708.647 406.002 710.465 406.167 712.607 406.499C693.11 406.83 673.29 406.937 653.469 406.999C645.971 407.022 638.474 406.943 630.518 406.83C630.837 406.496 631.613 406.242 632.713 405.977Z" fill="#E11F03"/>
<path d="M467.926 91.4546C468.363 92.24 468.936 93.4788 468.938 94.7185C468.99 129.636 468.986 164.554 468.974 199.471C468.974 200.121 468.772 200.771 468.37 201.716C467.951 201.029 467.72 200.047 467.72 199.065C467.732 163.346 467.765 127.627 467.926 91.4546Z" fill="#E2202C"/>
<path d="M465.754 203.146C465.717 203.335 465.439 203.413 465.081 203.332C465.171 203.127 465.342 203.081 465.754 203.146Z" fill="#E2202C"/>
<path d="M467.81 202.168C468.013 202.451 467.856 202.709 467.347 202.959C467.162 202.696 467.313 202.427 467.81 202.168Z" fill="#E2202C"/>
<path d="M475.05 202.62C474.813 202.395 474.504 201.847 474.421 201.16C474.758 201.446 474.867 201.872 475.05 202.62Z" fill="#E2202C"/>
<path d="M617.01 406.757C618.855 407.025 621.063 406.389 621.044 409.678C620.941 427.947 620.995 446.216 620.995 464.847C572.228 464.847 523.923 464.847 474.893 464.847C474.893 445.748 474.893 426.835 474.937 407.462C474.982 407.002 474.989 406.983 475.361 406.989C476.472 406.941 477.212 406.886 478.297 406.896C479.108 406.921 479.572 406.881 480.5 406.897C523.827 406.972 566.691 406.995 609.555 406.999C612.04 406.999 614.525 406.841 617.01 406.757Z" fill="#F2A078"/>
<path d="M467.063 406.866C467.063 426.113 467.063 445.359 467.063 465.215C464.861 465.215 463.084 465.214 461.306 465.215C416.696 465.218 372.087 465.142 327.479 465.339C322.497 465.361 321.461 463.751 321.516 459.109C321.713 442.641 321.466 426.168 321.198 409.025C320.972 407.917 320.935 407.482 320.97 406.842C321.041 406.636 321.07 406.203 321.47 406.142C323.213 406.08 324.558 406.079 326.182 406.405C327.616 406.822 328.77 406.993 329.924 406.994C373.642 407.008 417.36 407.009 461.078 406.992C462.395 406.992 463.712 406.782 465.366 406.724C466.157 406.808 466.61 406.837 467.063 406.866Z" fill="#F29F77"/>
<path d="M480.991 401.982C524.734 401.991 568.476 402.033 612.219 401.963C617.498 401.955 622.777 401.336 628.515 401.009C627.999 405.526 628.166 404.973 624.438 403.844C622.332 403.207 619.568 404.743 616.581 405.643C571.052 405.979 526.043 405.972 481.021 405.567C481.002 404.108 480.996 403.045 480.991 401.982Z" fill="#E40724"/>
<path d="M471.986 408.963C472.652 410.258 473.886 411.548 473.897 412.848C474.03 428.808 474.037 444.77 473.889 460.73C473.876 462.11 472.53 463.477 471.804 464.85C471.206 463.513 470.097 462.181 470.088 460.84C469.973 443.882 470.015 426.923 470.349 409.487C471.116 408.994 471.551 408.978 471.986 408.963Z" fill="#E40724"/>
<path d="M472.045 408.626C471.551 408.978 471.116 408.994 470.354 409.02C469.167 408.203 468.306 407.376 467.254 406.707C466.61 406.837 466.157 406.808 465.366 406.553C465.029 406.328 465.012 405.987 464.989 405.571C463.241 404.431 461.518 403.079 459.79 403.074C417.528 402.956 375.265 402.982 333.002 402.984C331.838 402.984 330.645 402.879 329.531 403.122C329.227 403.189 329.162 404.35 328.659 405.035C327.52 405.401 326.712 405.74 325.903 406.079C324.558 406.079 323.213 406.08 321.412 405.762C320.634 403.962 320.314 402.482 319.994 401.001C366.763 401.332 413.532 401.674 460.302 401.955C462.254 401.967 464.211 401.407 466.581 401.446C467.626 408.944 471.137 401.917 473.027 403.318C473.692 404.426 474.331 405.214 474.978 406.247C474.986 406.493 474.989 406.983 474.989 406.983C474.989 406.983 474.981 407.002 474.97 406.993C474.007 407.419 473.055 407.853 472.045 408.626Z" fill="#E50405"/>
<path d="M625.993 422.013C625.993 436.587 625.993 450.662 625.993 464.738C622.289 461.743 622.211 412.572 625.993 409.176C625.993 413.289 625.993 417.402 625.993 422.013Z" fill="#E60B20"/>
<path d="M424 469.991C390.047 469.991 356.594 469.991 323.142 469.991C323.142 469.758 323.142 469.524 323.142 469.291C370.648 469.291 418.154 469.291 465.66 469.291C465.664 469.524 465.668 469.758 465.671 469.991C451.948 469.991 438.224 469.991 424 469.991Z" fill="#E31E15"/>
<path d="M524 469.991C509.376 469.991 495.252 469.991 481.129 469.991C481.13 469.757 481.131 469.522 481.132 469.288C526.642 469.288 572.153 469.288 617.664 469.288C617.666 469.522 617.668 469.757 617.67 469.991C586.613 469.991 555.557 469.991 524 469.991Z" fill="#E31E15"/>
<path d="M481.034 405.964C526.043 405.971 571.052 405.979 616.53 405.982C616.998 405.978 617.005 406.368 617.007 406.562C614.525 406.841 612.04 406.999 609.555 406.999C566.691 406.995 523.827 406.972 480.617 406.702C480.48 406.218 480.735 406.056 481.034 405.964Z" fill="#E11F03"/>
<path d="M716 469.991C688.38 469.991 661.261 469.991 634.141 469.991C634.141 469.758 634.142 469.525 634.142 469.292C675.979 469.292 717.816 469.292 759.653 469.292C759.657 469.525 759.66 469.758 759.664 469.991C745.276 469.991 730.888 469.991 716 469.991Z" fill="#E31E15"/>
<path d="M297.992 469.006C302.953 469.006 307.415 469.006 311.878 469.006C311.874 469.241 311.87 469.475 311.867 469.71C270.022 469.71 228.178 469.71 186.334 469.71C186.332 469.475 186.33 469.241 186.328 469.006C223.384 469.006 260.439 469.006 297.992 469.006Z" fill="#E31E15"/>
<path d="M316.191 466.252C317.051 465.996 318.122 466.002 319.594 466.011C318.798 466.181 317.601 466.347 316.191 466.252Z" fill="#E31E15"/>
<path d="M320.898 407.047C320.935 407.482 320.972 407.917 320.984 408.682C320.959 409.01 320.479 409.001 320.255 408.713C320.319 407.966 320.608 407.506 320.898 407.047Z" fill="#E50405"/>
<path d="M561.125 208.812C535.99 209.044 511.023 209.02 486.056 208.997C481.976 208.993 477.895 208.994 473.404 208.987C473.676 208.013 474.358 207.045 475.089 206.008C478.944 206.008 483.833 206.008 488.723 206.008C511.366 206.008 534.01 205.964 556.653 206.1C558.276 206.11 561.669 204.208 561.125 208.812Z" fill="#E31A23"/>
<path d="M577.009 267.627C575.997 267.247 575.005 266.492 574.005 265.365C574.716 264.997 575.435 265.001 576.513 265.013C576.925 265.765 576.977 266.509 577.009 267.627Z" fill="#E50804"/>
<path d="M609.701 268.791C609.668 269.022 609.405 269.144 609.071 269.075C609.158 268.817 609.314 268.749 609.701 268.791Z" fill="#E60B20"/>
<path d="M628.108 330.545C627.419 331.53 626.822 332.053 624.979 333.668C624.979 321.314 624.938 310.077 625.039 298.841C625.05 297.663 625.9 296.493 626.718 295.123C627.452 296.615 628.139 298.3 628.157 299.992C628.257 310.022 628.203 320.053 628.108 330.545Z" fill="#E50804"/>
<path d="M314.234 293.367C314.697 292.316 315.105 291.639 315.997 290.158C315.997 303.333 315.997 315.697 315.766 328.529C315.534 328.996 315.091 328.982 314.892 328.969C314.692 328.955 314.293 328.956 314.293 328.956C314.25 318.612 314.208 308.269 314.392 297.374C314.514 296.546 314.41 296.27 314.306 295.994C314.263 295.243 314.221 294.491 314.234 293.367Z" fill="#E50405"/>
<path d="M314.183 329.366C314.293 328.956 314.692 328.954 314.864 329.387C315.041 331.213 315.046 332.608 315.05 334.002C314.88 334.009 314.71 334.015 314.283 334.016C314.043 332.599 314.058 331.187 314.183 329.366Z" fill="#E2202C"/>
<path d="M314.224 296.246C314.41 296.27 314.514 296.546 314.467 296.91C314.257 296.832 314.2 296.665 314.224 296.246Z" fill="#E2202C"/>
<path d="M334.179 268.707C334.087 268.871 333.804 268.897 333.096 268.883C333.11 268.752 333.549 268.66 334.179 268.707Z" fill="#E31A23"/>
<path d="M328.256 335.996C329.9 335.66 331.793 335.047 333.687 335.044C377.162 334.99 420.637 335.003 464.588 335.004C463.164 335.334 461.264 335.95 459.364 335.952C416.223 336.009 373.082 335.998 329.473 336.01C329.005 336.02 328.506 336.003 328.256 335.996Z" fill="#E22521"/>
<path d="M279.063 336.309C279.386 335.946 279.631 335.757 279.972 335.328C280.823 335.098 281.536 335.056 282.607 335.039C281.871 335.707 280.778 336.351 279.338 336.995C278.991 336.996 279.025 336.536 279.063 336.309Z" fill="#E5040E"/>
<path d="M279.891 338.739C279.202 339.317 278.406 339.636 277.286 339.978C277.45 339.098 277.938 338.195 278.71 337.142C279.257 337.488 279.521 337.984 279.891 338.739Z" fill="#E5040E"/>
<path d="M315.31 333.985C315.046 332.608 315.041 331.213 315.064 329.401C315.091 328.982 315.534 328.996 315.756 328.997C315.991 329.739 316.004 330.48 316.025 331.589C315.878 332.628 315.724 333.298 315.31 333.985Z" fill="#E5040E"/>
<path d="M286.328 336.978C286.77 336.343 287.565 335.713 288.68 335.079C288.227 335.712 287.453 336.347 286.328 336.978Z" fill="#E5040E"/>
<path d="M324.86 336.213C325.744 336.004 326.49 336.002 327.609 336.003C326.895 336.143 325.809 336.283 324.86 336.213Z" fill="#E5040E"/>
<path d="M314.256 336.446C314.125 336.861 313.842 337.127 313.56 337.392C313.471 337.28 313.292 337.085 313.306 337.07C313.558 336.799 313.834 336.55 314.256 336.446Z" fill="#E5040E"/>
<path d="M369.006 265C368.337 264.222 367.082 263.451 367.074 262.666C366.971 252.677 367.039 242.687 367.107 232.697C367.109 232.334 367.558 231.975 369.002 231.672C369.002 242.472 369.002 253.272 369.001 264.542C368.999 265.012 369 265 369.006 265Z" fill="#E41202"/>
<path d="M360.497 272.997C359.418 273.337 357.877 273.95 356.329 273.967C347.72 274.058 339.109 274.006 330.499 273.993C330.372 273.993 330.128 273.833 330.137 273.8C330.202 273.558 330.317 273.329 330.713 273.038C335.883 272.985 340.757 272.99 345.63 272.992C350.431 272.995 355.232 272.994 360.497 272.997Z" fill="#E4082A"/>
<path d="M375.344 273.018C374.942 272.189 374.865 271.357 374.88 270.275C439.319 270.019 503.664 270.013 568.47 270.027C567.038 270.368 565.145 270.968 563.252 270.969C503.22 271.019 443.188 270.998 383.155 271.061C381.159 271.063 379.164 271.823 377.069 272.627C376.535 273.021 376.102 273.018 375.344 273.018Z" fill="#E50405"/>
<path d="M469.261 329.999C469.001 329.834 469.001 329.666 468.998 329.248C468.997 313.308 468.999 297.62 468.999 281.463C469.099 280.677 469.283 280.42 469.766 280.116C469.992 296.355 470.003 312.702 470.027 329.514C469.866 329.986 469.693 329.991 469.261 329.999Z" fill="#E41202"/>
<path d="M616.979 335.732C572.042 335.988 527.115 335.988 482.187 335.988C482.186 335.655 482.186 335.322 482.185 334.989C526.81 334.989 571.434 334.989 616.527 334.976C616.992 335.133 616.99 335.304 616.979 335.732Z" fill="#E22521"/>
<path d="M621.079 334.566C623.064 334.163 625.035 334.116 627.421 334.122C625.503 333.733 623.939 340.256 621.079 334.566Z" fill="#E41202"/>
<path d="M577.469 273.981C577 273.971 577 273.487 577.001 273.245C587.271 273.003 597.54 273.003 607.809 273.003C607.812 273.332 607.815 273.661 607.818 273.991C597.858 273.991 587.898 273.991 577.469 273.981Z" fill="#E4082A"/>
<path d="M577.466 272.005C579.38 271.676 581.762 271.339 584.574 270.995C592.615 270.988 600.226 270.988 607.836 270.988C607.838 271.325 607.84 271.661 607.843 271.998C597.873 271.998 587.904 271.998 577.466 272.005Z" fill="#E2202C"/>
<path d="M231.707 402.122C232.009 401.958 232.504 401.986 233.049 402.285C235.405 402.717 237.217 402.963 239.029 402.965C263.691 402.991 288.353 402.983 313.007 402.991C313 402.998 313.015 402.991 313.01 403.327C313.01 404.113 313.015 404.562 313.014 405.258C313.009 405.506 312.999 406.001 312.999 406.001C287.645 405.994 262.291 405.995 236.937 405.959C235.304 405.957 233.569 405.934 232.091 405.37C231.549 405.164 231.616 403.36 231.707 402.122Z" fill="#E4082A"/>
<path d="M313.255 406.016C312.999 406.001 313.009 405.506 313.241 405.111C313.32 404.141 313.168 403.566 313.015 402.991C313.015 402.991 313 402.997 313.001 402.738C312.994 402.311 312.986 402.143 312.977 401.974C315.084 401.672 317.19 401.369 319.645 401.034C320.314 402.482 320.634 403.962 321.012 405.823C321.07 406.203 321.041 406.636 320.97 406.842C320.608 407.506 320.319 407.966 320.012 408.711C319.661 410.721 319.047 412.444 319.038 414.17C318.961 429.142 318.994 444.114 318.994 459.085C318.994 460.705 318.994 462.325 318.994 463.945C318.664 463.947 318.334 463.95 318.005 463.953C318.005 457.698 318.005 451.443 318.005 445.188C318.005 434.542 318.199 423.889 317.857 413.253C317.78 410.839 315.846 408.485 314.396 406.087C313.854 406.058 313.683 406.044 313.255 406.016Z" fill="#E31E15"/>
<path d="M598 684.952C614.126 684.952 629.751 684.952 645.769 684.952C645.769 689.694 645.769 694.217 645.769 699.05C603.352 699.05 561.02 699.05 518.383 699.05C518.383 694.503 518.383 690.087 518.383 684.952C544.748 684.952 571.124 684.952 598 684.952Z" fill="#FBFDFD"/>
<path d="M335 684.951C364.951 684.951 394.402 684.951 424.065 684.951C424.065 689.87 424.065 694.287 424.065 699.025C381.519 699.025 339.143 699.025 296.469 699.025C296.469 694.339 296.469 689.93 296.469 684.951C309.278 684.951 321.889 684.951 335 684.951Z" fill="#FAFDFD"/>
<path d="M690.898 519.235C692.1 524.121 693.069 528.683 694.155 533.799C688.575 533.799 684.202 533.799 678.425 533.799C679.716 529.03 680.383 524.352 682.275 520.237C683.942 516.611 687.243 515.427 690.898 519.235Z" fill="#9BD6F4"/>
<path d="M545.835 534.142C542.06 534.147 538.765 534.147 534.053 534.147C535.347 529.04 536.099 524.544 537.738 520.397C538.35 518.848 541.07 517.197 542.752 517.275C544.382 517.35 546.808 519.311 547.302 520.927C548.395 524.505 548.623 528.378 548.868 532.153C548.908 532.756 547.21 533.473 545.835 534.142Z" fill="#9BD6F4"/>
<path d="M382.979 339.027C440.907 339.016 498.835 338.997 556.762 339.042C558.109 339.043 559.455 339.759 560.914 340.684C561.026 341.227 561.103 341.518 560.635 341.416C534.587 341.286 509.007 341.252 483.427 341.252C482.285 341.252 481.144 341.555 479.608 341.544C477.809 341.488 476.405 341.605 474.571 341.578C471.089 341.336 468.037 341.239 464.718 340.816C462.651 340.33 460.851 340.031 459.051 340.028C435.591 339.997 412.132 340.03 388.672 339.965C386.774 339.96 384.877 339.354 382.979 339.027Z" fill="#E40B03"/>
<path d="M382.617 339.022C384.877 339.354 386.774 339.96 388.672 339.965C412.132 340.03 435.591 339.997 459.051 340.028C460.851 340.031 462.651 340.33 464.252 340.864C440.354 341.246 416.653 341.238 392.953 341.281C389.653 341.287 386.354 341.539 382.688 341.518C380.927 341.919 379.533 342.479 378.097 343.504C378.105 361.637 378.154 379.305 378.126 397.33C378.076 398.415 378.103 399.142 378.131 399.87C378.131 399.87 378.03 399.95 377.72 399.744C377.276 398.364 377.141 397.191 377.007 396.018C376.996 378.323 376.986 360.628 376.989 342.092C377.657 340.193 378.313 339.133 378.969 338.074C380.064 338.388 381.16 338.702 382.617 339.022Z" fill="#E11F03"/>
<path d="M378.98 337.81C378.313 339.133 377.657 340.192 376.984 341.623C375.026 340.906 373.086 339.817 371.146 338.728C371.289 338.152 371.432 337.576 371.574 337C373.763 337 375.952 337 378.569 337.009C378.996 337.194 378.994 337.37 378.98 337.81Z" fill="#E30D25"/>
<path d="M562.602 341.128C563.035 341.443 563.22 341.688 563.693 342.29C563.96 343.13 564.014 343.555 563.887 344.244C563.572 344.675 563.44 344.842 563.003 344.988C562.167 343.818 561.635 342.668 561.103 341.519C561.103 341.519 561.026 341.227 561.007 341.076C561.418 340.99 561.847 341.053 562.602 341.128Z" fill="#ED9173"/>
<path d="M376.719 395.761C377.141 397.191 377.276 398.364 377.667 399.78C374.184 401.078 372.094 399.11 372.046 394.119C371.954 384.356 372.007 374.591 372.006 364.827C372.004 358.538 372.012 352.25 372.034 345.496C375.611 344.779 374.972 347.371 374.976 349.435C374.999 362.219 374.91 375.005 375.053 387.787C375.082 390.364 375.951 392.932 376.719 395.761Z" fill="#E40724"/>
<path d="M569.693 342.732C569.942 358.268 570.022 373.695 569.941 389.123C569.924 392.401 569.382 395.684 568.938 398.945C568.848 399.605 568.111 400.176 567.672 400.788C567.12 400.122 566.567 399.455 566.007 398.009C566.004 380.575 565.991 363.921 566.057 347.266C566.061 346.169 566.67 345.074 566.999 343.655C567.001 342.9 567.001 342.468 567.002 342.037C567.824 342.233 568.645 342.429 569.693 342.732Z" fill="#E40724"/>
<path d="M566.616 342.027C567.001 342.468 567 342.9 566.632 343.657C565.533 343.982 564.801 343.981 564.069 343.98C564.014 343.555 563.959 343.13 563.907 342.384C564.682 342.048 565.456 342.033 566.616 342.027Z" fill="#E60B20"/>
<path d="M378.588 399.891C378.103 399.142 378.076 398.414 378.453 397.272C380.236 396.242 381.613 395.628 383.16 395.256C383.884 395.671 384.438 395.843 385.29 396.309C386.564 396.738 387.539 396.99 388.515 396.991C445.207 397.01 501.9 397.018 558.592 396.957C560.121 396.955 561.649 396.194 563.348 396.066C563.378 397.41 563.236 398.475 563.094 399.54C503.075 399.652 443.057 399.764 383.038 399.878C381.708 399.88 380.377 399.9 378.588 399.891Z" fill="#ED9173"/>
<path d="M563.158 399.795C563.236 398.475 563.378 397.41 563.414 395.672C563.309 378.336 563.308 361.672 563.308 345.009C563.44 344.842 563.572 344.674 563.887 344.244C564.801 343.981 565.533 343.982 566.631 343.981C566.67 345.074 566.061 346.169 566.057 347.266C565.991 363.921 566.004 380.575 565.99 397.626C565.062 398.698 564.142 399.374 563.158 399.795Z" fill="#E40B03"/>
<path d="M312.511 401.982C312.986 402.143 312.994 402.311 313.009 402.731C288.353 402.983 263.691 402.991 239.029 402.965C237.217 402.963 235.405 402.717 233.296 402.291C259.348 401.995 285.696 401.992 312.511 401.982Z" fill="#E50405"/>
<path d="M481.021 405.567C480.735 406.056 480.48 406.218 480.153 406.646C479.572 406.881 479.107 406.921 478.076 406.664C476.662 406.245 475.816 406.124 474.97 406.002C474.331 405.214 473.692 404.426 473.027 403.319C473 403 472.999 403.001 473.244 402.834C473.657 402.112 473.825 401.557 473.993 401.002C476.145 401.14 478.298 401.278 480.721 401.699C480.996 403.045 481.002 404.107 481.021 405.567ZM477.22 404.126C477.107 404.236 476.936 404.331 476.901 404.463C476.879 404.548 477.05 404.781 477.143 404.785C477.781 404.814 478.42 404.8 479.06 404.8C479.062 404.629 479.065 404.457 479.068 404.286C478.627 404.203 478.186 404.12 477.22 404.126Z" fill="#E5110C"/>
<path d="M473.001 402.999C471.137 401.917 467.626 408.944 466.997 401.398C468.715 401.015 470.433 401.012 472.578 401.344C473.002 402.119 473.001 402.56 472.999 403.001L473.001 402.999Z" fill="#E5110C"/>
<path d="M473.244 402.834C473.001 402.56 473.002 402.119 473.008 401.347C473.011 401.016 473.502 401.005 473.747 401.004C473.825 401.557 473.657 402.112 473.244 402.834Z" fill="#E50405"/>
<path d="M474.978 406.247C475.816 406.123 476.662 406.245 477.73 406.599C477.212 406.886 476.472 406.941 475.361 406.989C474.989 406.983 474.986 406.492 474.978 406.247Z" fill="#E11F03"/>
<path d="M465.012 405.987C465.012 405.987 465.029 406.328 465.029 406.499C463.712 406.782 462.395 406.992 461.078 406.992C417.36 407.009 373.642 407.008 329.924 406.994C328.77 406.993 327.616 406.822 326.182 406.405C326.712 405.74 327.52 405.401 328.958 405.326C331.4 405.722 333.212 405.966 335.025 405.967C378.354 405.989 421.683 405.986 465.012 405.987Z" fill="#E11F03"/>
<path d="M464.989 405.571C421.683 405.986 378.354 405.989 335.025 405.967C333.212 405.966 331.4 405.722 329.287 405.3C329.162 404.35 329.227 403.189 329.531 403.122C330.645 402.879 331.838 402.984 333.002 402.984C375.265 402.982 417.528 402.956 459.79 403.074C461.517 403.079 463.241 404.431 464.989 405.571Z" fill="#E4082A"/>
<path d="M313.01 403.327C313.168 403.566 313.32 404.141 313.246 404.864C313.015 404.562 313.011 404.113 313.01 403.327Z" fill="#E50405"/>
<path d="M563.003 344.988C563.308 361.672 563.308 378.336 563.243 395.393C561.649 396.194 560.121 396.955 558.592 396.957C501.899 397.018 445.207 397.01 388.515 396.991C387.539 396.99 386.564 396.738 385.262 396.014C384.288 395.288 383.639 395.151 382.99 395.014C381.613 395.628 380.235 396.242 378.531 396.915C378.154 379.305 378.105 361.637 378.408 343.647C380.706 344.118 382.646 344.893 383.055 341.677C386.354 341.539 389.653 341.287 392.953 341.281C416.653 341.238 440.354 341.246 464.519 341.189C468.037 341.239 471.089 341.337 474.705 341.844C476.847 342.075 478.424 341.896 480.002 341.717C481.144 341.555 482.285 341.252 483.427 341.252C509.007 341.252 534.587 341.286 560.635 341.416C561.635 342.668 562.167 343.818 563.003 344.988Z" fill="#F29E77"/>
<path d="M479.608 341.544C478.424 341.896 476.847 342.075 475.135 341.988C476.405 341.605 477.809 341.488 479.608 341.544Z" fill="#ED9173"/>
<path d="M382.688 341.518C382.646 344.893 380.706 344.118 378.449 343.183C379.533 342.479 380.927 341.919 382.688 341.518Z" fill="#ED9173"/>
<path d="M383.16 395.256C383.639 395.151 384.288 395.288 384.965 395.72C384.438 395.843 383.884 395.671 383.16 395.256Z" fill="#F19F78"/>
<path d="M477.483 404.082C478.186 404.12 478.627 404.203 479.068 404.286C479.065 404.457 479.062 404.629 479.06 404.801C478.42 404.801 477.781 404.814 477.143 404.785C477.05 404.781 476.879 404.548 476.901 404.463C476.936 404.331 477.107 404.236 477.483 404.082Z" fill="#E11F03"/>
</g>
<defs>
<clipPath id="clip0_396_900">
<rect width="946" height="946" fill="white"/>
</clipPath>
</defs>
</svg>
