<?xml version="1.0" standalone="no"?>
<!DOCTYPE svg PUBLIC "-//W3C//DTD SVG 20010904//EN"
 "http://www.w3.org/TR/2001/REC-SVG-20010904/DTD/svg10.dtd">
<svg version="1.0" xmlns="http://www.w3.org/2000/svg"
 width="946.000000pt" height="946.000000pt" viewBox="0 0 946.000000 946.000000"
 preserveAspectRatio="xMidYMid meet">

<g transform="translate(0.000000,946.000000) scale(0.100000,-0.100000)"
fill="#000000" stroke="none">
<path d="M4604 8734 c-55 -71 -604 -784 -1219 -1584 -615 -800 -1148 -1493
-1184 -1540 -36 -46 -413 -536 -838 -1089 l-773 -1005 2 -815 3 -816 4108 -3
4107 -2 0 822 0 823 -151 195 c-83 107 -323 420 -535 695 -211 275 -564 734
-784 1020 -220 286 -580 754 -800 1040 -220 286 -580 754 -800 1040 -439 571
-1009 1311 -1026 1333 -8 11 -31 -13 -110 -114z m66 -729 l0 -565 -441 0 -441
0 65 83 c105 134 357 463 587 764 118 155 218 282 223 282 4 1 7 -253 7 -564z
m434 100 c190 -247 379 -492 418 -544 40 -51 77 -100 81 -107 7 -12 -61 -14
-428 -14 l-435 0 0 567 c0 344 4 563 9 558 5 -6 165 -212 355 -460z m574 -747
c9 -9 12 -87 12 -290 l0 -278 -980 0 c-539 0 -983 -1 -987 -2 -14 -5 -15 534
-2 560 l12 22 967 0 c738 0 969 -3 978 -12z m275 -357 c87 -112 157 -207 157
-212 0 -5 -79 -9 -175 -9 l-175 0 0 236 c0 232 0 236 18 213 11 -13 89 -116
175 -228z m-2317 -208 c-4 -10 -47 -13 -177 -13 -94 0 -169 4 -167 8 2 5 80
108 173 230 l170 222 3 -217 c1 -120 0 -223 -2 -230z m1024 -373 l0 -290 -730
0 -730 0 0 268 c0 226 2 271 16 290 l15 22 715 0 714 0 0 -290z m1530 271 c6
-12 10 -123 10 -290 l0 -271 -730 0 -730 0 0 290 0 290 720 0 c701 0 720 0
730 -19z m-3060 -338 l0 -228 -171 3 c-94 2 -169 7 -167 11 3 10 331 440 336
441 1 0 2 -102 2 -227z m3320 2 c84 -110 157 -206 163 -212 7 -10 -27 -13
-167 -13 l-176 0 0 227 c0 192 2 225 14 213 7 -8 82 -105 166 -215z m-2755
-594 l0 -286 -702 -3 c-436 -1 -703 1 -703 7 0 5 99 138 221 296 l221 286 482
-7 481 -6 0 -287z m2980 292 c17 -13 445 -568 445 -577 0 -3 -319 -6 -710 -6
l-710 0 0 288 c0 159 2 291 4 293 8 8 961 9 971 2z m-1055 -293 l0 -290 -925
0 -925 0 0 290 0 290 925 0 925 0 0 -290z m-2490 -650 l0 -290 -676 0 -676 0
29 38 c15 21 115 152 222 290 l194 252 453 0 454 0 0 -290z m1530 0 l0 -290
-730 0 -730 0 0 290 0 290 730 0 730 0 0 -290z m1540 0 l0 -290 -730 0 -730 0
0 290 0 290 730 0 730 0 0 -290z m1130 98 c80 -104 180 -235 223 -289 l77 -99
-680 0 -680 0 0 290 0 290 458 0 457 -1 145 -191z m372 -486 c14 -15 94 -117
178 -227 179 -233 233 -304 488 -635 l188 -245 -1929 -3 c-1061 -1 -2795 -1
-3854 0 l-1925 3 293 380 c161 209 322 418 358 465 36 47 101 131 144 187 l78
103 2978 0 2978 0 25 -28z m968 -1382 c0 -116 -1 -120 -22 -125 -13 -3 -1796
-4 -3963 -3 l-3940 3 -3 123 -3 122 3966 0 3965 0 0 -120z m-6652 -792 l-3
-73 -640 0 -640 0 -3 73 -3 72 646 0 646 0 -3 -72z m2220 0 l-3 -73 -642 -3
-643 -2 0 75 0 75 645 0 646 0 -3 -72z m2212 -3 l0 -75 -640 0 -640 0 0 75 0
75 640 0 640 0 0 -75z m2220 0 l0 -75 -640 0 -640 0 0 75 0 75 640 0 640 0 0
-75z"/>
<path d="M2165 4551 c-160 -39 -288 -188 -302 -349 -10 -121 48 -255 136 -316
117 -81 307 -98 424 -39 50 25 107 84 107 109 0 13 -3 24 -6 24 -3 0 -29 -20
-56 -45 -132 -118 -321 -91 -382 56 -9 20 -21 78 -27 128 -15 109 -4 188 38
271 49 94 154 139 259 110 58 -17 126 -82 146 -140 27 -83 38 -62 38 74 0 116
-9 156 -25 107 -10 -32 -39 -34 -125 -7 -81 26 -162 32 -225 17z"/>
<path d="M3666 4549 c-21 -5 -65 -23 -97 -41 -227 -121 -272 -436 -86 -603 85
-77 222 -110 349 -85 109 21 198 81 198 132 l0 30 -40 -35 c-135 -123 -321
-112 -389 22 -30 58 -44 152 -39 259 4 78 10 107 31 147 58 113 153 157 272
124 52 -14 129 -93 146 -148 7 -23 16 -41 21 -41 4 0 8 56 8 125 0 114 -9 157
-23 105 -8 -32 -35 -35 -106 -10 -74 25 -186 34 -245 19z"/>
<path d="M4717 4550 c-238 -60 -365 -327 -258 -544 66 -135 215 -209 387 -193
111 11 244 88 244 143 0 13 -3 24 -6 24 -4 0 -27 -18 -51 -41 -61 -56 -104
-72 -193 -73 -62 -1 -81 3 -113 22 -122 77 -158 371 -62 521 30 48 56 70 102
87 118 42 234 -11 289 -131 14 -30 30 -55 35 -55 5 0 9 55 9 125 0 69 -4 125
-9 125 -5 0 -16 -11 -25 -25 -20 -30 -35 -31 -106 -4 -62 24 -185 33 -243 19z"/>
<path d="M2625 4530 c3 -5 19 -10 34 -10 60 0 61 -7 61 -337 0 -278 -1 -301
-18 -316 -10 -10 -30 -17 -45 -17 -14 0 -29 -4 -32 -10 -4 -7 100 -10 304 -10
l309 0 6 28 c7 33 26 162 26 180 0 27 -18 10 -39 -38 -26 -56 -79 -106 -131
-120 -59 -17 -175 -13 -191 6 -9 11 -15 58 -17 150 l-4 134 26 0 c63 0 125
-68 126 -137 0 -14 6 -23 15 -23 13 0 15 27 15 186 0 144 -3 185 -12 182 -7
-3 -16 -20 -19 -39 -13 -77 -63 -129 -124 -129 l-25 0 0 145 0 145 85 0 c50 0
99 -6 118 -14 42 -17 83 -66 98 -116 7 -22 16 -40 21 -40 4 0 8 47 8 105 l0
105 -301 0 c-197 0 -298 -3 -294 -10z"/>
<path d="M6426 4456 c-14 -24 -57 -73 -96 -109 -38 -35 -70 -68 -70 -71 0 -3
13 -6 29 -6 l29 0 4 -183 c2 -154 6 -187 21 -210 26 -40 72 -60 126 -54 37 4
52 13 83 46 36 39 47 61 30 61 -5 0 -19 -11 -32 -25 -29 -31 -44 -31 -64 -3
-13 18 -16 55 -16 195 l0 173 60 0 c57 0 60 1 60 25 0 24 -3 25 -60 25 l-60 0
0 90 c0 50 -4 90 -9 90 -5 0 -21 -20 -35 -44z"/>
<path d="M5375 4329 c-51 -12 -107 -57 -141 -114 -51 -87 -42 -243 18 -326 84
-116 259 -101 335 29 33 56 22 65 -23 19 -47 -46 -83 -55 -132 -29 -40 21 -76
80 -88 145 l-6 37 137 0 138 0 -6 49 c-11 94 -68 169 -145 191 -20 5 -39 9
-42 9 -3 -1 -23 -5 -45 -10z m87 -69 c10 -19 18 -56 18 -82 l0 -48 -70 0 -70
0 0 34 c0 116 81 179 122 96z"/>
<path d="M5985 4328 c-22 -5 -53 -19 -67 -33 -34 -31 -38 -31 -38 0 l0 25
-105 0 c-99 0 -134 -10 -80 -24 17 -4 26 -15 30 -39 11 -56 1 -390 -11 -394
-6 -2 -20 -10 -30 -18 -17 -13 -3 -14 116 -14 l135 0 -27 20 -28 21 0 167 c0
165 1 169 25 195 13 14 35 26 48 26 47 0 52 -19 52 -207 0 -172 0 -175 -24
-194 -13 -11 -22 -22 -19 -25 3 -2 61 -3 129 -2 111 3 121 4 98 16 l-26 14 -5
181 c-6 196 -15 240 -59 268 -33 22 -67 26 -114 17z"/>
<path d="M6821 4330 c-161 -39 -233 -278 -130 -433 83 -125 270 -111 344 27
25 46 11 59 -21 19 -27 -36 -82 -58 -116 -48 -54 17 -107 97 -108 163 l0 32
130 0 130 0 0 43 c-1 124 -116 224 -229 197z m73 -49 c17 -19 36 -115 28 -139
-2 -8 -29 -12 -73 -12 -78 0 -79 1 -58 85 19 76 67 106 103 66z"/>
<path d="M7445 4324 c-25 -8 -57 -31 -82 -61 l-43 -47 0 52 0 52 -100 0 c-100
0 -120 -7 -78 -25 30 -13 35 -43 37 -215 1 -185 -4 -218 -35 -226 -58 -15 -14
-24 111 -24 74 0 135 2 135 6 0 3 -13 10 -30 15 -25 9 -30 17 -36 57 -11 71 3
229 23 270 23 46 47 61 71 44 9 -7 28 -18 40 -24 51 -26 107 44 79 100 -17 34
-45 42 -92 26z"/>
<path d="M2201 1088 c-85 -189 -165 -361 -180 -383 -14 -22 -41 -46 -59 -54
-17 -8 -32 -18 -32 -23 0 -4 59 -8 130 -8 127 0 169 11 90 24 -66 10 -75 58
-30 159 l21 48 140 -3 141 -3 29 -68 c46 -108 39 -137 -32 -137 -16 0 -29 -4
-29 -10 0 -6 72 -10 195 -10 107 0 195 2 195 5 0 2 -16 12 -37 21 -32 16 -43
32 -93 138 -31 67 -108 239 -171 383 -63 145 -116 263 -119 263 -3 0 -75 -154
-159 -342z m138 -196 c-32 -2 -85 -2 -118 0 l-59 3 45 100 c24 55 51 116 59
135 l15 35 59 -135 59 -135 -60 -3z"/>
<path d="M3004 1414 c-51 -18 -111 -75 -132 -123 -22 -53 -19 -130 7 -185 31
-62 80 -102 212 -170 164 -86 208 -141 175 -221 -17 -41 -52 -65 -105 -72
-117 -16 -226 64 -272 200 -31 91 -39 71 -39 -92 0 -128 2 -151 15 -151 8 0
15 4 15 10 0 5 11 17 25 26 23 15 29 14 100 -10 118 -41 207 -34 297 23 84 54
125 160 97 258 -20 72 -90 135 -236 211 -128 66 -183 114 -183 158 0 69 67
120 146 111 87 -9 166 -79 199 -174 25 -72 35 -51 34 69 0 62 -4 122 -9 133
-7 19 -9 18 -19 -7 -13 -34 -38 -36 -101 -7 -59 28 -170 34 -226 13z"/>
<path d="M6721 1171 l-191 -259 0 -56 0 -56 145 0 145 0 0 -90 0 -90 80 0 79
0 3 88 3 87 35 5 c31 4 35 9 38 39 6 62 -4 81 -43 81 l-35 0 0 255 0 255 -34
0 c-32 0 -40 -9 -225 -259z m99 -101 l0 -150 -110 0 c-60 0 -110 3 -110 6 0 7
211 294 216 294 2 0 4 -67 4 -150z"/>
<path d="M7328 1176 l-188 -254 0 -61 0 -60 141 -3 142 -3 -2 -87 -2 -88 80 0
80 0 3 88 3 87 38 3 37 3 0 60 0 59 -40 0 -40 0 0 255 0 255 -32 0 c-31 0 -42
-13 -220 -254z m94 -106 l-3 -150 -110 0 c-61 0 -109 4 -107 8 6 16 212 292
218 292 3 0 4 -67 2 -150z"/>
<path d="M7926 1416 c-53 -20 -84 -44 -123 -95 -42 -55 -56 -110 -51 -198 6
-88 42 -155 103 -191 34 -19 51 -22 110 -19 39 2 78 7 88 12 16 7 17 4 12 -21
-28 -123 -131 -230 -262 -271 -112 -35 -28 -41 97 -6 222 61 361 243 362 473
0 141 -57 251 -155 302 -52 26 -131 32 -181 14z m101 -48 c28 -32 40 -70 54
-166 14 -98 7 -211 -12 -223 -19 -12 -66 -11 -90 1 -10 6 -26 27 -35 48 -20
47 -36 201 -28 264 12 87 67 125 111 76z"/>
<path d="M1140 1400 c0 -5 16 -10 35 -10 22 0 43 -8 55 -20 19 -19 20 -33 20
-355 0 -322 -1 -336 -20 -355 -12 -12 -33 -20 -55 -20 -19 0 -35 -4 -35 -10 0
-6 124 -10 353 -10 l354 0 11 108 c14 127 15 172 4 172 -5 0 -15 -19 -22 -42
-29 -101 -86 -168 -157 -187 -57 -16 -195 -14 -219 3 -18 14 -19 31 -22 338
-3 317 -2 325 18 351 17 21 30 27 61 27 21 0 39 5 39 10 0 6 -77 10 -210 10
-133 0 -210 -4 -210 -10z"/>
<path d="M4490 1400 c0 -5 6 -10 14 -10 28 0 65 -44 190 -228 l128 -190 -112
-136 c-124 -151 -146 -171 -201 -188 -22 -6 -39 -15 -39 -20 0 -4 70 -8 156
-8 148 0 191 10 105 24 -44 7 -66 33 -56 67 4 11 43 65 86 120 63 78 83 98 93
89 29 -23 158 -230 154 -247 -2 -10 -17 -22 -36 -28 -17 -5 -32 -13 -32 -17 0
-4 86 -8 190 -8 105 0 190 3 190 8 0 4 -15 14 -33 23 -23 11 -67 66 -159 200
-70 101 -133 196 -142 210 -15 25 -13 27 96 158 112 134 154 171 196 171 12 0
22 5 22 10 0 6 -55 10 -145 10 -90 0 -145 -4 -145 -10 0 -5 11 -10 24 -10 14
0 33 -11 45 -25 27 -35 17 -60 -66 -163 l-66 -84 -73 112 c-41 62 -74 117 -74
124 0 20 23 36 52 36 15 0 28 5 28 10 0 6 -72 10 -195 10 -123 0 -195 -4 -195
-10z"/>
<path d="M5350 1400 c0 -5 16 -10 35 -10 22 0 43 -8 55 -20 19 -19 20 -33 20
-355 0 -322 -1 -336 -20 -355 -12 -12 -33 -20 -55 -20 -19 0 -35 -4 -35 -10 0
-16 444 -13 507 4 155 41 251 138 282 284 39 184 -36 369 -178 442 -84 42
-143 50 -383 50 -145 0 -228 -4 -228 -10z m453 -55 c78 -37 126 -145 134 -300
12 -236 -70 -385 -211 -385 -78 0 -76 -11 -76 373 l0 340 61 -7 c33 -3 75 -13
92 -21z"/>
<path d="M3790 890 l0 -60 170 0 170 0 0 60 0 60 -170 0 -170 0 0 -60z"/>
</g>
</svg>
